<svg viewBox="0 0 527.99 192.74" height="192.74" width="527.99" xmlns="http://www.w3.org/2000/svg" data-name="Camada 1" id="Camada_1"><defs><style>.cls-1{fill:#eebab9;}.cls-2{fill:#f1c97e;}.cls-3{fill:#6f7062;}.cls-4{fill:#c6997d;}</style></defs><circle r="23.7" cy="167.42" cx="72.58" class="cls-1"></circle><circle r="23.7" cy="25.18" cx="216.11" class="cls-2"></circle><path transform="translate(-55.82 -125)" d="M271.82,125a25.4,25.4,0,0,0-25.37,25.37v95.4a22.41,22.41,0,1,1-44.81,0v-47.3a1,1,0,0,1,0-.4v-.4a25.37,25.37,0,1,0-50.74,0V245a1.42,1.42,0,0,0,0,.36v47a22.41,22.41,0,0,1-44.82,0V246.51c0-.5.05-1,.05-1.49a25.19,25.19,0,1,0-3,11.93v35.42a25.37,25.37,0,0,0,50.74,0v-47.3a1.42,1.42,0,0,0,0-.36v-47a22.41,22.41,0,0,1,44.82,0v.4a1,1,0,0,1,0,.4v47.3a25.37,25.37,0,1,0,50.73,0v-95.4a22.41,22.41,0,1,1,44.81,0v47.21a1.49,1.49,0,0,0,3,0V150.37A25.4,25.4,0,0,0,271.82,125ZM81,267.24a22.22,22.22,0,1,1,22.21-22.5,1.66,1.66,0,0,0,0,.33v1.33A22.25,22.25,0,0,1,81,267.24Z" class="cls-3"></path><path transform="translate(-55.82 -125)" d="M303.88,236.22c0-5.51-2.84-8.54-9.42-8.54-4.71,0-8.18,1.78-8.18,5.16a4.8,4.8,0,0,0,1.69,3.73l-6.4,3.47a8.65,8.65,0,0,1-3.29-6.84c0-6.4,6.05-11.92,18.14-11.92,14.22,0,20.89,5.78,20.8,17.25v27.55H305l-.8-9.15c-1.87,5.78-7.55,10-15.38,10-7.2,0-13.24-4.09-13.24-11.55,0-9.87,10.4-12.8,21-14.67l7.37-1.24Zm-5.42,9.33c-6.31,1.25-9.78,3.38-9.78,7.91,0,3.65,2.4,5.51,5.87,5.51,5.07,0,9.33-5.69,9.33-12.53v-1.87Z" class="cls-3"></path><path transform="translate(-55.82 -125)" d="M355.17,221.28c6.4,0,10.4,4.45,10.4,10.32a12.85,12.85,0,0,1-3.11,8.17l-5.78-3.37a7.27,7.27,0,0,0,1.52-4.09c0-2.4-1.52-4.09-4.45-4.09-5.95,0-13,10.66-13,22.13v15.73H327.26V222.17h13.16l.35,11.74C343,227.06,347.71,221.28,355.17,221.28Z" class="cls-3"></path><path transform="translate(-55.82 -125)" d="M366.2,222.17h6.57l.09-8.89,13.25-5.51v14.4h14.75l-.44,6.58H386.11v24.09c0,4.18,1.86,6.58,5.42,6.58,4.18,0,6.4-3,6.67-9.42l5.68.71C403.71,260,398.11,267,387.44,267c-8.62,0-14.93-4.8-14.84-14.66l.17-23.56H366.2Z" class="cls-3"></path><path transform="translate(-55.82 -125)" d="M428.24,267c-12.45,0-22.85-8-22.85-22,0-14.76,10.49-23.65,22.94-23.65,13.6,0,20.8,9.43,20.8,23.29H419.35c.18,11.11,5.42,15.29,12.36,15.29,6.22,0,9.68-3.29,12.08-9.33l5.07,1.95C446.37,261.73,439.08,267,428.24,267Zm-8.71-27.73h16.18c0-6.93-1.43-12.36-7.47-12.36C423.17,226.88,420.24,230.62,419.53,239.24Z" class="cls-3"></path><path transform="translate(-55.82 -125)" d="M336.24,271.15c9.78,0,14.13,6.84,14.13,15.47V316H337v-27c0-4.89-2-8.45-6.93-8.45s-8.54,5.25-8.54,14V316H308v-27c0-4.89-2-8.45-6.84-8.45s-8.53,5.25-8.53,14V316H279.08V272h13.16l.36,9.86c2.57-6.75,7.73-10.75,14.66-10.75,8.27,0,12.71,4.35,13.87,11.11C323.71,275.42,329.31,271.15,336.24,271.15Z" class="cls-3"></path><path transform="translate(-55.82 -125)" d="M379.62,316.84c-12.45,0-22.85-8-22.85-22,0-14.75,10.49-23.64,22.94-23.64,13.6,0,20.8,9.42,20.8,23.29H370.73c.18,11.11,5.42,15.29,12.36,15.29,6.22,0,9.68-3.29,12.08-9.34l5.07,2C397.75,311.59,390.46,316.84,379.62,316.84Zm-8.71-27.74h16.18c0-6.93-1.43-12.35-7.47-12.35C374.55,276.75,371.62,280.48,370.91,289.1Z" class="cls-3"></path><path transform="translate(-55.82 -125)" d="M420.77,272l.36,9.86c2.67-6.84,8.09-10.75,15.11-10.75,10,0,14.49,6.84,14.49,15.47V316H437.22v-27c0-4.89-2.13-8.45-7.11-8.45s-9,5.25-9,14V316H407.62V272Z" class="cls-3"></path><path transform="translate(-55.82 -125)" d="M455.26,272h6.58l.09-8.89,13.24-5.51V272h14.76l-.44,6.58H475.17V302.7c0,4.18,1.87,6.58,5.43,6.58,4.17,0,6.4-3,6.66-9.42l5.69.71c-.18,9.25-5.78,16.27-16.44,16.27-8.62,0-14.94-4.8-14.85-14.67l.18-23.55h-6.58Z" class="cls-3"></path><path transform="translate(-55.82 -125)" d="M523.08,286.08c0-5.51-2.84-8.53-9.42-8.53-4.71,0-8.17,1.78-8.17,5.16a4.83,4.83,0,0,0,1.68,3.73l-6.4,3.47a8.67,8.67,0,0,1-3.28-6.85c0-6.4,6-11.91,18.13-11.91,14.22,0,20.89,5.78,20.8,17.24V316H524.15l-.8-9.16c-1.87,5.78-7.55,10-15.38,10-7.2,0-13.24-4.09-13.24-11.56,0-9.86,10.4-12.8,21-14.66l7.37-1.25Zm-5.42,9.34c-6.31,1.24-9.77,3.37-9.77,7.91,0,3.64,2.39,5.51,5.86,5.51,5.07,0,9.33-5.69,9.33-12.54v-1.86Z" class="cls-3"></path><path transform="translate(-55.82 -125)" d="M560,316H546.46V249.37H560Z" class="cls-3"></path><circle r="7.89" cy="183.25" cx="520.1" class="cls-4"></circle></svg>