<svg id="Camada_1" data-name="Camada 1" xmlns="http://www.w3.org/2000/svg" viewBox="0 0 800 500">
  <path d="M446,394c.78,2.62-2.63,2.85-4.49,3.01-32.17,2.7-64.37,5.06-96.51,8l6.73,2.75c31.06.34,62.93-6.47,93.77-7.75,23.41-.98,43.47,13,66.48,12.98l-17.97-4.51c-1.56-.58-6.32-2.79-7.1-3.9-1.6-2.25-.46-4.63-1.13-6.87-.48-1.61-2.93-2.83-3.32-4.6s1.29-3.33,1.32-4.78c.03-1.59-2.24-3.33-1.8-5.34l-3.03,1.6c.06,3.37,4.1,2.97,2.96,6.31-7.99,2.66-14.8,9.61-23.91,6.6,2.85-5.02,7.22-8.09,11.99-11.01l-3.87-3.19c-1.66-6.51,13.58-9.18,16.87-12.81l-2.99-1.98c7.62-7.74,17.65-19.81,20.7-30.31,2.99-10.27,5.29-26.97,7-38,3.39-21.83,1.45-44.98,15.81-63.21l9.47,7c1.03-4.72-3.12-6.07-4.42-8.07-.73-1.11-.5-2.81-1.13-3.86-2.08-3.47-4.89-4.04-3.43-10.07-20.82,1.66-6.44-11.78-6.91-22.51-.24-5.59-5.95-6.89-7.04-13.04-2.16-12.24-.25-31.5,5.23-42.65,22.28-45.36,76.2-43.08,94.19,4.23,5.8,15.24,1.71,23.16-2.49,37.98,19.87,1.02,19.03,18.87,24.82,32.69l9.18,15.31-34.98-24.99c-6.16,18.12-15.08,36.59-26.6,51.92-2.55,3.39-6.41,5.67-8.62,9.38-5.57,9.38-26.2,60.57-27.54,70.46-1.05,7.77.19,15.53.75,23.24l8.17-21.32,47.82-77.66c-1.6-.45-11.87-3.51-10-6,3.83-1.88,13.59-4.35,15.88-7.63,3.84-5.49,4.2-23.31,5.4-30.62.23-1.42.25-4.25,2.15-3.71,2.66.75,15.48,10.69,18.88,13.13,10.43,7.5,37.86,26.72,42.87,37.13,4.44,9.24,6.51,24.92,7.6,35.19.89,8.32,1.33,17.26,2.31,25.89.67,5.87,3.94,11.62,4.88,18.12,1.06,7.35,1.91,19.47,2.06,26.94s-.36,13.53-2.05,20.55h94l-1.48,2-91.82.12c-6.85,9.88-5.09,24.12-20.33,25.75-23.88,2.56-56.74.64-81.83,1.17-9.83.21-19.71-.23-29.54-.05l.99-4.99h-7c2.83-17.83-13.36-26.2-25.47-35.03-9.47-6.9-8.34-8.18-21.5-10.5-16.84-2.97-20.67-.99-35.06,7.03-1.14.63-2.33-.1-1.99,2.01,2.07,8.73,14.61-4.06,16.02-2.51-2.46,3.91,1.59,7.11,1.67,8.5.13,2.16-5.03,6.69,2.26,8.62-4.62,10.3,13.68,12.31,20.87,13.58,11.35,2.01,23.73,3.05,35.21,3.3v3h-29.01l13,4.01-1.73,2.76-88.05,15.96-10.22-1.73c-.66.66,3.3,13.92-.51,15.99h-154.5l.47-4.03,16.68-34.81,54.84-5.17-8.99-3.01v-2.98s72.99-6.01,72.99-6.01l-83.99-1c-.61-2.76,2.57-2.31,4.5-3.99,13.03-11.33,20.35-28.81,32.58-38.42,5-3.93,14.98-7.67,17.79-13.2,1.2-2.36.71-5.09,1.35-6.16.37-.63,2.52-.75,3.27-2.21,1.55-2.98,2.3-8.87.93-12.05,13.41-3.73,9.49-11.48-1.42-13.96l1.76,5.5c-.45,1.08-1.39,1.9-2.5,2.26-2.24.72-11.74,2.98-13.9,3.16-1.51.13-2.96.35-4.37-.42-5.46-2.7,4.32-23.33-6.98-25.5-2.56,5.22.5,10.15-.22,15.24-.79,5.51-7.2,12.56-7.77,17.36-.46,3.88,2.65,10.77.48,14.4-3.36,5.61-23.46,10.18-29.91,9.84l-22.24-41.75c-4.4-1.31-11.87,9.5-12.33,13.51-.57,4.99,2.76,12.06,2.78,16.9.02,5.88-5.51,15.15-4.61,19.75.65,3.34,11.23,21.02,13.84,24.23,5.88,7.22,13.58,9.62,19.98,15.52h-59c-.3-9.19,7.9-15.9,12.41-23.09,1.94-3.09,8.6-14.06,9.08-16.81s-2.55-4.98-2.6-8.58c-.03-2.55.95-8.86,1.38-11.75,1.58-10.79,5.9-20.28,3.17-31.77,1.38-2.78,11.4-4.28,14.56-4.01-2.32-22.18-11.82-37.14-26.49-53.01-1.2-1.29-2.51-3.23-4.51-2.98.09,11.6-7.98,22.73-15.49,31.01-2.51,2.76-9.61,7.83-10.97,10.01-2.81,4.49-4.4,13.9-7.62,18.91-3.76,2.69-23.29-17.37-26.43-20.92-11.75-13.29-22.1-29.67-30.98-45.04l-1.94-.96c-12.45,4.54-25.32,8.37-37.53,13.51-20.19,8.49-22.2,10.02-28.53,31.47-3.54,12.01-5.52,24.53-7.41,36.89l3.91,1.1c-1.19-5.84,3.43-7.7,8.02-9.48,10.08-3.92,23.73-4.6,34.21-2.24,13.05,2.94,12.55,6.77,11.77,19.21-.88,14.12-4.5,29.33-5.99,43.5,5.43.15,10.62,2.67,16.06,1.58,4.23-.85,24.12-10.52,26.37-13.64s1.94-11.86,3.01-15.99c.97-3.74,5.02-9.04,5.37-11.67s-3.04-6.47-.86-7.81c9.93-2.94,11.65,6.84,11.05,14.53,16.06-.55,27.86-33.56,39.73-35.84,4.44-.85,7.82,2.3,4.27,5.84,1.17,1.06,5.83-5.62,10.76-3.35.38.17,3.95,5.7,4.07,6.08,1.46,4.74-5.97,12.29-7.82,16.78l4,.49c1.98,16.11-11.08,26.44-23.1,34.41-10.04,6.66-21.94,10.34-31.82,17.18-5.04,3.49-8.21,7.88-12.62,11.38-18.45,14.65-45.1,34.89-69.98,32.03-15.11-1.74-17.97-14.94-22.5-27H21v-2h89c2.17,6.79,6.65,20.78,13.3,24.2,21.11,10.84,56.03-13.24,72.17-26.23,4.76-3.83,9.56-9.8,14.59-13.41,10.32-7.4,23.66-11.77,34.25-18.75,9.55-6.3,22.11-16.23,21.19-28.81-3,4.55-9.07,16.71-14.98,17.03-1.58.09-1.73.13-1.54-1.54l21.02-35.5-2.91-.05-.09-3.96c-1.39-.1-2.71,0-4.05.46-6.22,2.17-13.51,20.6-19.46,25.53-3.5,2.9-6.27.31-4.75-3.65,2.71-7.06,12.41-16.73,16.26-23.83-4.09-1.75-10.34,5.88-12.97,9.03-5.96,7.13-16.16,24.61-26.64,25.44-9.02.72-.8-15.41-11.37-14.96,2.86,7.19-1.7,10.7-3.51,17-4.9,17.01,1.56,16.79-16.62,26.38-12.1,6.38-20,8.57-33.76,4.51-1.64-1.94,5.6-43.62,5.88-50.4.24-5.85,0-7.8-5.6-10.38-7.58-3.5-25.22-2.68-33.4-.62-4.33,1.1-11.09,2.64-10,8.5l5.02.52c-4.66,18.15-3.78,37.34-4.01,56l-2,1.48-1.94-55.38-5.58-2.59c-1.52-2.52,2.11-19.93,2.98-24.05,2.76-13.1,7.52-34.22,19.6-41.4,5.1-3.03,51.5-21.28,54.29-20.47,15.85,24.04,30.55,50.67,55.13,66.91.79-.18,6.62-10.27,5.03-12-3.46,2.08-4.91,5.33-9.47,3.46-2.79-1.15-13.09-11.61-15.55-14.45-11.24-13-21.85-30.78-29.49-46,8.44-1.63,14.02-7.41,10.72-16.19-2.91-7.75-3.03-9.33-4.96-17.09-1.37-5.54-5.64-11.71-7.51-17.49-4.58-14.11-2.84-26.14,5.75-38.24-8.73,0-12.74,9.02-12.93,16.65-.57,23.02,14.56,51.87-4.54,71.37-6.2,6.32-17.66,12-26.52,11.96,2.11-4.42,3.6-7.39,4.03-12.46,2.75-32.06-16.92-59.17,3.15-88.85,10.07-14.89,28.57-26.64,47.08-22.44,7.03,1.6,10.66,8.57,11.44,8.78,2.87.77,9.12-.36,12.78,0,23.32,2.29,44.13,16.46,48.6,40.38l-2.08,1.59c1.04.05,2.39-.37,3.12.59s5.57,21.29,5.55,23.11c-.02,2.81-2.17,7.48-2.55,10.93-.62,5.55.01,10.85-1.4,16.6-1.03,4.2-14.3,27.69-17.27,30.73-2.48,2.55-4.93,2.99-8.41,3.09.51,8.61-.6,16.74-3.03,24.96,12.02-10.22,24.06-24.04,23-40.99.61-.7,4.46,2.33,5.21,2.99,6.19,5.5,17.29,19.67,21.3,26.99,5.55,10.13,6.97,21.91,9.48,33.01l-14.02,2.49-.98,8.51,8.06-7.43,6.94-2.14,21.67,41.46c10.53.24,18.26-3.04,27.16-8.03.45-5.18-1.63-9.93-.77-15.29.72-4.48,5.46-8.5,6.49-13.5,1.12-5.45-2.48-22.07,6.77-18.92,8.43,7.58,3.86,16.64,4.7,25.85l16.97-4-1.86-5.28c1.88-7.42,18.34,3.8,15.37,10.26-1.41,3.07-6.36,3.98-7.04,4.99-.56.83-1.32,7.85-2.41,10.59s-5.33,10.8-7.07,12.93c-4.69,5.7-15.1,8.95-21.02,14.98-9.55,9.71-16.05,26.02-27.95,34.55h114ZM604,159.5c.59,6.43,0,14.36,0,21,0,.64-2.77,5.18-.01,5.49,5.46-13.86,8.29-22.89,3.03-37.51-12.79-35.57-53.84-48.28-79.99-17.95-12.84,14.89-18.34,35.16-14.79,54.73.93,5.1,4.7,5.79,6.01,8.99,3.07,7.55-2.01,17.22-3.24,24.73,3.81,1.72,10.3-1.6,11.79,3.72.52,1.85-.19,4.03.35,5.68.24.74,5.93,7.1,6.66,8.3,2.71,4.46-.22,9.08,8.68,8.38,7.77-.6,30.78-16,35.5-22.57,3.82-5.32,3.3-12.61,4.89-14.9.62-.89,5.01-.99,7.04-2.17,8.51-4.97,9.73-31.78-4.48-18.47-5.03,4.71-4.09,11.53-12.86,7.94-7.37-3.01-9.76-10.91-13.91-15.58-3.04-3.42-25.36-18.52-29.69-19.8-3.88-1.15-7.05-1.58-10.99-.52-1.36-1.38,4.1-8.76,5.18-10.31,25.82-37.08,75.64-45.11,80.82,10.82ZM245.5,166c6.06-.72,13.29.53,19.5,0-6.92-26.87-34.63-37.89-60.38-35.94-1.58-5.8-7.56-8.28-13.23-8.95-24.21-2.86-47.53,21.8-50.11,44.66-1.44,12.76,2.81,23.54,4.58,35.87s3.64,25.82-.35,38.37c12.18-2.97,24.04-10.82,27.79-23.21,6.33-20.94-9.46-50.53-.81-68.81,2.84-6.01,6.69-5.1,11.04-7.96,5.53-3.63,9.93-9.49,17.47-9.02-.09,1.17.55,2.16-.62,3.07-2.48,1.93-6.02,3.22-8.9,5.9-17.53,16.32-13.83,34.49-4.46,54.02,10.77-6.94,14.66,6,18,14l13.5-7.98c-.81-17.88,8.61-31.83,26.98-34.02ZM601.32,187.74c-1.58-3.43.16-24.19-.33-30.22-1.02-12.53-7.16-29.54-20.01-33.99-23.89-8.28-47.07,12.29-58.96,31-.32,2.21.31,1.18,1.49,1.45,12.51,2.91,20.48,8.78,30.38,16.63,7.45,5.91,7.6,8.79,13.09,14.91,13.59,15.16,11.15-1.86,21.3-5.73,14.83-5.67,12.88,20.47,2.1,26.09-1.69.88-5.06,1.05-5.26,1.24-.4.39-1.56,8.45-2.62,10.88-4.04,9.24-24.14,21.89-33.52,25.48-5.09,1.95-8.84,3.76-13.97.52-1.88,16.04-11.47,29.6-15.52,44.99-2.82,10.71-4.22,22.92-4.48,34l30.18-61.3c1.36-5.54,2.98-10.75,7.32-14.68,1.53-.24,1.73-.04,1.5,1.5-.73,4.9-6.51,8.62-4.59,14.54s12.99,5.09,17.62,3.5c3.98-1.37,10.01-18.62,12.57-23.43,4.75-8.93,17.81-25.77,19.91-34.09.54-2.14,3.55-19.91,3.55-21.6s-1.6-1.32-1.77-1.69ZM263,168h-14.5c-2.29,0-10.72,2.67-13.19,3.81-10.39,4.78-13.95,14.29-14.3,25.19,8.64-9.7,14.31-20.71,27.73-24.76l14.26-4.24ZM266.87,172.13c-22.18-2.27-34.74,12.97-45.7,29.61.01,5.82,1.51,12.05,1.92,17.77.18,2.51-1.06,4.68-1,6.9.11,4.32,3.66,11.34,5.74,15.26.83,1.56,8.75,12.81,8.17,13.32-8.62-.62-17.62-9.1-22.97-15.52-2.43-2.92-10.14-16.41-11.75-17.25s-4.51-.62-6.26-2.22c.3,8.21-4.85,10.86-10.98,14.49,12.98,19.82,24.47,41.82,43.89,56.07,15.7-4.67,14.17-24.4,15.13-37.52l8.67-2.33,15.77-26.72c.65-8.88,4.54-22.21,4.59-30.49.01-2.07-4.29-20.78-5.21-21.37ZM630.99,224c-6.06-14.54-4.78-34.48-24.98-36.01l-5,27,5.49-9.98,24.49,18.98ZM195.7,195.32c-1.16-.94-2.53-1.43-4.04-1.22-1.17.34-2.29,2.38-2.4,3.55-.09.9,4.73,16.14,5.29,17.3,2.35,4.95,7.83,4.03,8.91,5.02,2.02,1.85,4.29,7.92,6.31,10.75,5.54,7.75,12.16,16.53,21.23,20.26-12.17-14-11.06-29.57-12-46.99-5.7-.7-8.9,4.63-13.36,6.93-3.76-.63-6.62-12.91-9.94-15.61ZM576.01,260c4.44-3.03,7.36-8.71,10.16-13.33,5.49-9.06,10.63-19.56,13.82-29.67l-17.16,27.32-6.82,15.67ZM683,393.99c6.92,1.93,7.1-13.52,6.98-18.49-.32-14.14-2.95-28.29-6.29-41.71-2.7-10.83-2.03-25.61-3.83-37.17-1.27-8.18-3.43-20.79-6.84-28.16-4.77-10.28-36.98-32.92-47.71-40.29-3.56-2.45-7.42-5.4-11.31-7.18-1.22,1.12-1.87,26.85-6.1,32.41-1.48,1.95-10.14,5.13-12.91,5.6-2.43,2.33,9.3,4.37,8.99,5.48-12.83,21.56-27.76,41.94-40.41,63.6-9.65,16.52-21.73,36.1-16.12,55.96l8.65,1.58c4.02,9.64,6.92,19.82,6.9,30.38h7.99c1.29-1.21-8.19-27.87-6.99-34.49.21-1.17.51-1.83,1.51-2.51,2.01-.48,1.96,2.36,2.67,2.78,1.7,1,21.32-2.44,25.32-2.77,13.23-1.1,26.69-1.35,39.97-2.04,8.37-3.49,2.26-6.13,1.56-10.53-.48-3.02.59-5.77.12-9.02-3.23-22.62-22.25-43.1-10.87-68.63,4.45-9.98,27.51-32.44,38.69-27.28,10.55,4.87,16.62,38.41,14.96,48.93-.48,3.04-3.12,5.92-3.7,9.3-2.73,15.88,6.21,18.14,10.23,29.29,4.88,13.52,4.53,31.95-1.47,44.97ZM515,333.5c-1.22,8.55.9,19.65,0,28.5-2.93.77-2.92-3.47-3.05-5.45-1.41-21.42.42-50.8,6.79-71.31,2.2-7.08,15.88-34.16,13.04-39.03-.31-.53-7.85-5.87-8.76-5.21-10.95,18.69-9.92,39.47-13.17,60.34-2.28,14.62-4.69,35.85-11.82,48.18-3.77,6.51-8.8,12.28-13.02,18.47,8.03.38,15.55-3.28,23.52-3.98,2.4-.21,6.99.95,7.33.81.12-.05.19-1.45.86-1.8,6.96-3.65,19.17-12.03,18.13,1.84l-10.84,4.64c6.06,5.5,11.02,13.57,19.99,14.5-.99-16.7-6.39-32.83-1.71-49.21,1.89-6.63,5.45-14.39,7.97-21.03,5.47-14.41,11.94-28.48,17.75-42.74-8.44,2.08-15.85,1.54-21.99-5.01-6.91,16.45-15.9,32.05-23.19,48.32-2.06,4.59-7.21,14.86-7.82,19.18ZM679,395.99c.42-2.66,2.46-4.35,3.48-7.02,4.31-11.34,3.57-33.68-2.62-44.34-1.51-2.6-4.64-4.72-6.05-7.95-6.32-14.55,3.28-23.81,2.06-37.07-.6-6.5-7.13-33.48-13.58-35.41-11.99-3.58-32.22,16.76-36.47,27.11s-2.86,17.42-.53,27.88c3.83,17.18,10.75,26.92,11.74,45.25.28,5.19,9.38,10.75-2.59,14.49l-67.45,5.05,7,34c-2.82.1-5.68-.11-8.51,0-1.54.06-3.96-.94-3.48,1.48,2.81,3.23,6.95.57,10.45.47,29.71-.81,59.36.87,89-1,4.61-.29,12.21,1.33,15.62-1.38,3.05-2.43,10.53-18.41,8.91-21.58h-6.98ZM244.01,327c3.84-3.93,8.88-9.62,9.98-15l-9.98,15ZM282.01,351c6.19-6.13,5.14-16.04,3.98-24-2.18.75-2.29,3.87-2.71,5.78-1.27,5.8-1.37,12.3-1.27,18.22ZM311,394c-3.65-4.04-9.39-6.43-13-10.5-5.45-6.16-8.62-16.65-13.16-22.84-.64-.87-.97-1.96-2.33-1.67-2.07,3.64-3.53,7.72-5.7,11.32-4.68,7.75-12.61,14.84-13.81,23.69h48ZM520.01,364.02c-.06,6.17,7.65,1.92,10.37-.14s2.22-5.13-1.13-4.15-5.95,3.51-9.24,4.3ZM522.76,371.26c-1.22-.63-3.11-.04-4.73-.77-1.99-.89-2.86-4.12-6.61-4.48l-12.41,2.98c4.71.51,9.42,1.21,13.99,2.52,9.12,2.61,29,17.27,35.52,24.48,5.16,5.7,7.46,11.12,6.48,19.02h5.01c.68-9.59-2.12-18.91-5.94-27.57-2.26.47-6.26-.37-6.16,2.44l-1.88.12c-.53-4.31-5.23-3.47-8.36-5.15-5.77-3.1-11.9-12.02-14.91-13.58ZM478,388.01c-2.63-2.37-14.37,4.27-15,7.98,1.42,1.12,11.12-4.38,13.03-5.5,1.3-.76,2.51.17,1.97-2.48ZM426,413h66l-38.49-11.07-92.51,8.08,64.49,22.01c3.28.25.6-5.56.51-7.53-.16-3.82.09-7.68-.01-11.49ZM427,435l-73.59-23.92-58.91,4.92-2.41,1.59-15.09,32.41h150v-15ZM506.5,416h-78.5l1.1,17.9,9.4,2.18,82.5-14.09c.37-2.71-.21-1.55-1.47-2.01-2.29-.84-11.15-3.71-13.02-3.98Z"></path>
</svg>