<svg id="Camada_1" data-name="Camada 1" xmlns="http://www.w3.org/2000/svg" viewBox="0 0 800.03 452.22">
  <defs>
    <style>
      .cls-1 {
        fill: #fff;
      }
    </style>
  </defs>
  <path class="cls-1" d="M.04,445.21c10.34-.23,20.5,1.98,28.54-5.96,12.66-19.82,26.72-38.99,38.88-59.12,4.65-7.7,12.89-19.45,12.65-28.43-.1-3.89-2.06-12.69-7.09-8-2.56,2.39-7.08,11.26-9.15,14.84-13.39,23.17-26.22,48.92-33.97,74.53l-3.76.04c-4.49-17.43,4.17-34.08,7.43-50.85,5.72-29.42.97-62.81,4.47-93.53,1.68-14.76,7.09-28.67,9.7-43.3,2.73-15.26,2.46-33.17,5.53-47.47,4.36-20.31,32.71-36.48,52.73-33.21,10.34-9.82,13.49-23.14,13.02-37.02-.18-5.14-1.86-11.8-2.03-16.97-.86-26.45-2.37-81.49,22.11-97.98,10.24-6.9,38.96-14.99,44.44.43,7.42,20.89-13.53,14.73-23.43,20.58-8.71,5.15-11.88,20.03-11.08,29.43,4.62-.21,9.97-.63,12.25,4.26.66,1.4.54,4.59,1.26,4.74,1.91.41,2.38.56,2.51-1.48.67-10.85-9.59-17.31-5.09-29.1,3.96-10.35,26.22-4.21,28.05-13.95,2.38-12.7-8.09-19.87,8.8-25.2,14.42-4.56,30.59-2.42,44.49,2.96,8.32,3.22,33.05,17.15,35.53,25.49.47,1.58-.25,3.87.42,5.07.28.51,7.14,5.76,8.81,7.68,11.24,12.97,17.93,38.67,7.39,53.44-2.81,3.93-6.48,4.61-6.5,10.58-.03,9.88,13.43,22.22,13.08,27.93-.45,7.17-11.1,7.76-12.56,10.58v9.02l40.57,3.98c-.08-3.79-.5-7.37,3.43-9.1,6.3-2.78,6.98,2.89,10.28,3.89,2.45.74,4.82-.33,7.69,1.31,1.89,1.08,2.31,3.18,3.68,4.32,6.35,5.3,36.72,3.78,37.93,9.09.25,1.08-2.21,3.48-2.5,3.48h-17.5c2.39,5.23,10.34,3.82,11,10.6.62,6.38-5.81,5.33-8.47,8.43-2.1,2.45-2.49,8.55-6.15,10.87-2.88,1.82-9.93-.48-13.37,2.59l5.49,8.5c3.18-5.47,10.02-7.49,13.51-12.49,2.39-3.41,4.1-13.06,9.46-12.58,7.15.64,4.07,24.83,3.08,30.12-1.56,8.27-5.28,15.39-7.07,23.93-10.31,49.23.72,112.49-15.44,157.56-1.82,5.07-8.26,12.67-8.83,15.17-.83,3.67.3,8-.28,11.72-.5,3.25-5.19,7.27-2.91,9.04,1.64,1.27,10.8,2.39,13.43,2.57,30.9,2.09,66.95-3.32,97.05-.05,5.82.63,12.41,3.37,19,4,33.47,3.16,73.25,4.25,106.95,5.05,15.58.37,31.25-.19,46.83-.25,1.11-.32,3.86-2.61,2.19-3.81-2.03.22-3.86.99-5.94,1.06-25.78.84-51.4-1.45-77-2.09-21.4-.53-44.91,1.76-65.92-1.08-16.37-2.22-24.05-5.52-5.29-15.04,10-5.08,24.02-3.2,35.16-3.84,17.39-1,34.56-1.4,52.05-1.95,17.42-.55,40.02-3.58,57-2.08,13.31,1.18,10.88,8.23,13.78,18.24.32,1.12.34,3.53,2.16,2.79,5.36-2.17-2.19-12.51-3.03-16.94-1.34-7.09,1.32-8.5,5.13-13.97,21.4-30.71,46.84-59.84,68.39-90.61,2.91-5.23,29.53-13.21,30.94-6.87-10.58,17.96-23.91,34.6-36.52,51.29-19.07,25.24-39.19,49.74-58,75.15,3.17,5.31,7.38,11.17,14.08,11.98l136.52-.02v3l-137.52.02c-6.79-.82-11.09-7.15-15.05-12-1.64,1.32-5.58,2.05-6.76,2.9-2.05,1.48-.46,6.17-6.22,6.99-15.89,2.24-39.5-.49-55.91-.95-32.11-.91-67.15-.96-99.03-3.97-6.6-.62-13.19-3.36-19-4-30.11-3.27-66.15,2.15-97.05.05-3-.2-12.75-1.47-14.77-2.97-4.86-3.62,1.42-8.76,2.1-11.78,1.27-5.62-1.43-11.21,2.2-16.8,6.83-10.51,7.94-12.38,10.69-25.31,9.91-46.41,1.91-96.32,11.78-143.22,3.31-15.75,13.83-33.77,6.03-49.95-3.55,3.85-4.02,9.6-7.51,13.47-4.6,5.12-8.05,5.86-13.15,12.85-3.96,5.43-5.13-6.82-7.84-9.86-4.74-5.32-14.24-5.71-17.85-14.15-1.83-4.27-.65-7.96-1.66-12.35-3.8,8.02-6.51,13.23-5.51,22.52,1.09,10.12,8.07,20.55,11.05,29.95,8.51,26.85-1.92,81.36-12.29,107.79-3.64,9.27-11.91,21.54-14.28,29.72-1.17,4.06-.58,9.12-2.69,13.31-1.91,3.78-8.26,8.32-10.81,13.19-6.55,12.49.53,20.49,10.13,27.95,3.5,2.72,10.73,6.23,13.28,8.72,1.09,1.07,2.09,1.32,1.62,3.36-.93,3.2-11.62-1.05-13.98-2.01-7.7-3.12-28.38-16.17-33.91-22.09-6.57-7.02-8.48-24.71-5.84-33.63,1.02-3.43,2.68-7.27,6.81-5.34,2.61,1.86-1.36,9.35,2.92,8.57,3.81-15.08,17.63-23.72,28.01-33.99-8.93,1.54-20.96,6.64-27.54,12.95-2.86,2.73-7.72,13.1-12.45,10.6-1.83-1.49-2.6-3.91-2.91-6.15-1.09-7.78.08-38.42,4.46-44.38,1.12-1.52,2.98-2.57,4.26-.81,2.68,3.68-1.64,22.92-.81,23.77,15.48-3.47,30.07-8.03,45.99-3.99.78-9-4.13-16.86-7.01-24.99-2.53.09.85,4.13-2.51,4.03-3.93-.12-11.42-4.34-17.11-4.91-4.99-.5-20.05,2.65-21.88-1.12-1.43-2.93-.78-12.86,1.56-15.45,1.94-2.15,9.52-4.52,12.44-4.55,3.67-.04,19.5,4.36,21.05,2.05,2.32-3.46-2.51-18.32-2.56-23.05l-2.59,7.89c-1.55,7.58-24.65,14.65-27.91,9.12-1.97-3.35.48-12.51,1.42-16.36,21.42-5.05,22.56-20.99,10.1-36.65,2.31,6.52-.66,27.59-7.94,29.59-4.28,1.17-3.22-6.1-3.1-9.13.33-8.3,4.14-30.1,1-36.66-.63-1.33-24.84-14.74-25.96-13.78.37,2.71,3.22,3.28,4.24,5.23,5.21,9.98-6.55,36.35-13.25,16.77-1.28-.96-10.75,14.01-12.01,15.48-8.95,10.35-23.3,16.76-21.9,33.89,1.12,13.64,26.7,62.64,35.94,74.11,5.09,6.32,18.84,16.11,20.55,23.45,1.89,8.13-2.02,22.22-9.06,27.08-1.56,1.08-8.38,2.63-7.5,4.48,2.8,2.17,6.41,3.92,9.64,5.37,10.25,4.62,18.82,3.8,22.84,16.15,2.57,7.88,1.59,9.36-6.12,10.86-25.45,4.98-64.69,8.67-90.88,10.12-6.87.38-14.31.8-20.39-2.58-10.13-5.62-5.68-10.68.89-16.92,9.63-9.14,24.44-15.98,30.2-28.8,1.34-2.97,2.92-12.73,4.48-13.77,4.43-2.97,15.72,5.51,20.36,7.55,5.42,2.38,11.16,4.3,16.96,5.53-10.36-12.31-19.71-25.86-27.52-39.97-17.89-32.31-25.31-70.6-37.41-105.44,5.04-18.16,23.84-3.58,28.42,7.42,10.33-21.14,44.46-35.33,38.04-62.03-2.67-11.1-5.28-11.83-11.33-2.27-3.92,6.2-10.5,22.66-15.17,26.83-1.57,1.4-3,2.29-5.05,1-5.34-3.33-12.86-64.28-18.5-76.51-4.03-8.75-10.2-8.99-17.47-14.02,4.35,13.16,10.42,26.02,12.67,39.82,1.68,10.27,1.18,20.23,2.44,30.56.65,5.29,8.28,37.27,6.87,38.63-.9-.12-2.23.27-2.87-.13-.92-.58-7.52-17.57-8.4-20.1-5.08-14.8-8.33-30.93-10.59-46.41-1.59-10.9-2.06-37.33-5.4-45.6-1.15-2.84-7.42-7.67-9.9-12.1-5.39-9.61-3.62-20.98-12.82-28.67-1.38,33.7,8.01,66.54,10,99.99,1.61-.16,1.88-4.29,1.98-5.51.29-3.39.06-25.58,1.02-26.49l3.88.12c1.47,1.23,5.71,32.87,6.1,37.39,1.07,12.38,1.87,27.71,1.05,40.03-.23,3.53-.17,9.24-5.03,8.45l-7.02-38.99-8.13,19.35-3.9,3.22c11.95,36.5,20.83,74.14,33.58,110.37,2.3,6.54,4.49,13.38,7.28,19.72,6.06,13.76,17.17,24.49,10.2,40.85-3.98,9.33-31.39,31.49-40.71,37.29-13.86,8.63-18.6-2.22-25.12-13.5-6.69-11.57-14.44-27.37-7.21-40.24-10.17-5.16-18.2-16.68-24.4-26.15-9.78-14.93-15.15-29.56-22.73-45.27-5.4-11.21-21.06-35.88-19.89-47.16.5-4.82,4.44-10.32,6.06-14.96,6.17-17.72,3.74-22.96,4.94-40.06,1.93-27.44,19.17-30.88,40.03-41.97.4-2.21-.88-1.49-2.37-1.38-10.47.75-21.59,5.69-29.63,12.38-16.51,13.73-12.45,25.97-15.12,44.88-4.54,32.23-13.66,60.03-14.91,93.09-.76,19.95,1.79,40.95-1.41,60.59-2.15,13.18-8.56,27.35-9.59,40.41-.12,1.54-.74,6.88,1.02,7.53,2.45-11.77,8.15-22.49,13.3-33.21,6.01-12.52,18.62-39.33,26.71-49.29,10.41-12.8,15.65,4.21,13.56,14.56-4.29,21.24-40.32,59.36-50.05,80.95-9.84,11.41-18.54,8.96-32.51,8.99v-3h.04ZM274.03,33.21c2.34-2.53-11.27-12.12-13.1-13.39-17.82-12.4-38.83-20.55-60.67-14.89-16.62,4.3-7.67,8.54-9.19,21.81-1.86,16.24-26.3,5.56-28.8,18.22-1.99,10.06,7.88,16.04,5.79,26.26,13.01-5.1,20.01,8.28,33.45,5.95,1.18-.2,2.36-.58,2.54-1.94-13.25-1.61-45.01-40.78-11.32-27.19,3.94,1.59,7.36,4.48,10.94,6.06,1.86.82,17.42,6.75,17.36,2.62-5.41-4.6-11.22-8.64-15.95-14.03-1.8-2.05-9.38-11.04-7.03-13.47,8.59-1.33,16.44,3.02,24.63,3.88,1.1.12,3.6.9,3.37-.87-6.77-1.75-23.76-9.26-24.85-16.76-1.19-8.19,18.77-3.63,22.86-2.77,17.31,3.65,34.79,11.66,49.98,20.51h0ZM162.04,8.22c-46.33,3.26-43.18,67.61-42.04,101.53.57,17.03,5.38,28.03-2.77,45.14-2.19,4.59-5.86,7.45-7.22,11.79,6.41,2.23,9.14,8.48,11.89,14.17,7,14.5,10.19,30.64,16.65,45.35,4.71-10.16,8.94-20.99,7.52-32.52-.77-6.26-6-11.85-8.55-17.45-8.62-18.93-12.17-62.71-9.21-83.27.63-4.41,4.26-10.27,4.43-13.4.17-2.92-2.23-8.45-2.57-11.98-1.05-10.82,2.25-24.64,7.71-34.04,1.62-2.79,4.34-8.72,7.09-4.68,1.61,2.35-4.28,32.18-4.79,37.99-.08.96-.71,3.01.36,3.36l6.01-4.95c-1.97-13.65,2.16-31.62,16.78-36.26,8.02-2.55,17.9.96,18.33-10.11.03-.71-.22-4.94-1.61-4.67-4.28,20.31-35.5,15.57-18.01-6h0ZM175.73,10.5c-5.9-7.19-18.9,3.56-15.2,11.72,5.99,6.45,20.76-4.95,15.2-11.72ZM271.04,34.23c-12.17-5.76-23.99-11.7-37-15.51-9.52-2.79-20.17-6.03-29.99-4.5-1.54,1.67,6.78,7.57,8.08,8.41,7.55,4.88,18.05,7.08,24.62,11.38,3.42,2.24,2.81,4.26-1.15,4.24-5.36-.03-32.97-7.18-34.55-6.03,3.93,5.93,9.24,11.18,14.48,16.01,2.71,2.51,12.38,6.7,8.01,10.94-8.89,8.63-32.31-11.82-42.49-10.96-2.92,2.89,12.44,17.4,15.08,19.41,2.87,2.17,13.94,6.92,14.44,7.56,2.36,3.01-6.55,4.73-8.13,4.91-15.49,1.8-20.36-9.65-34.25-5.75l.86,11.86c9.15-4.46,17.52-5.28,22.18,5.31,2.16,4.9,6.71,26.86,6.84,32.25.29,12.03-13.65,6.81-19.95,2.86-16.28-10.24-16.98-30.04-18.1-47.41-1.28.57-3.5,2.47-3.84,3.72-.43,1.58,4.78,20.22,5.54,24.09,1.51,7.76,1.84,15.73,3.54,23.46,8.72,8.2,17.91,8.19,22.79,20.21,8.86,21.84,7.98,50,15.99,72.52,2.11.38,2.75-1.36,3.82-2.67,4.7-5.79,13.53-28.27,18.4-30.59,8.92-4.25,12.57,11.7,12.66,17.87.34,25.11-36.06,41.57-38.71,56.15-.47,2.6,2.14,11.53-3.4,4.97-4.32-5.11-7.77-13.62-14.07-16.93-5.51-2.89-11.08-2.62-11.16,4.69,15.73,49.34,27.05,100.31,61.91,140.55,2.07,2.39,5.66,2.23,4.55,6.95-14.53.58-26.85-8.12-39.47-13.99-3.17,7.23-3.47,12.94-8.56,19.47-9.52,12.2-24.78,18.4-32.87,30.88,7.29,9.87,21.59,6.54,32.38,5.63,18.88-1.59,38.17-3.79,57-6,3.46-.4,28.19-3.21,28.57-4.61,1.01-16.3-16.41-16.12-26.95-22-15.5-8.64,1.81-10.43,6.09-16.69,3.43-5.02,5.95-14,4.59-19.99-1.23-5.4-17.04-17.72-21.77-24.22-9.35-12.84-33.42-58.41-34.9-73.1-.88-8.75,4.25-20.19,10.36-26.42,2.73-2.78,5.99-4.04,8.52-6.48,5.57-5.36,10.96-16.9,15.94-21.06,1.34-1.12,2.16-1.78,4.06-1.43.59.41,1.3,11,5.04,8.53,2.99-4.9,5.07-11.18,3.94-17.01-.76-3.92-9.47-7.85-7.97-13.52,2.09-.32,3.76.15,5.72.77,3.52,1.12,27.45,14.08,28.73,16.27,4.87,8.32-1.23,32.77-.44,42.95,4.42-3.92,6.33-13.82,5.98-19.47-.16-2.64-4.78-16.58,3.08-10.09,4.25,3.5,10.62,19.67,10.56,25.24-.08,7.2-7.29,13.23-13.23,16.22s-6.93.25-7.41,9.64c-.17,3.28-.45,5.52,3.46,5.5,7.59-.03,19.71-5.04,20.54-13.63.41-4.17-3.78-9.66.51-12.39,6.86,3.68,12.32,31.71,8.26,35.74-10.93,3.72-25.56-7.15-34.57,3.93l-.2,10.31c6.83-.13,13.6-1.69,20.49-1,5.24.52,9.49,3.17,14.5,3.99.48-.49-5.22-14.36,1.28-10,4.56,3.05,15.65,31.98,12.58,36.86-5.22,2.92-11.12-.8-16.36-.85-2.06-.02-7.46.78-9.87,1.11-7.83,1.08-15.26,4.03-22.92,5.73-5.02-1.21-1.56-15.53-1.2-19.86.09-1.04,1.48-3.19-.49-2.99-2.52,14.26-4.93,29.82-1.52,43.99,5.83-6,9.48-11.7,16.84-16.16,3.83-2.32,22.28-10.99,25.24-6.9,1.98,5.65-6.1,8.35-9.59,11.56-8.81,8.13-17.11,16.8-21.11,28.38l-4.41-.85-2.46-8.01c-2.45,8.27-2.27,21.16,1.47,29.01,4.42,9.29,29.69,22.67,39.51,26.98-13.49-10.61-29.14-20.22-17.8-39.29,2.82-4.74,8.33-8.54,10.19-12.81s1.4-8.68,2.83-13.17c2.12-6.66,7.69-14.62,10.63-21.37,12.45-28.55,24.78-86.51,14.18-115.89-4.57-12.65-13.84-26.31-9.55-40.48,1.96-6.49,8.71-13.88,6.34-21.28-1.37-2.53-11.98-3.32-15.33-3.7-11.38-1.26-23.07-1.29-34.49-2.01,2.05,6.67-4.76,6.57-6.08,8.67s-1.6,7.67-3.15,10.6c-3.26,6.18-13.33,8.85-19.82,8.29-7.32-.64-43.34-19.03-49.9-24.11-7.37-5.7-10.61-19.96-8.82-28.72.72-3.52,3.78-5.39,4.98-8.02,5.96-13.01-5.91-29.3,3.53-41.47,5.68-7.31,18.79-9.69,23.26-15.74,4.59-6.21,3.25-16.22,8.56-23.44,7.43-10.1,25.24-8.39,35.16-13.83,1.15-.63,1.69.04,1.27-2.22l.04.05ZM136.03,76.2l6-41.99c-7.91,10.19-10.77,26.65-7.7,39.22.24,1,.29,3.01,1.7,2.77ZM295.74,137.92c.99-1.14,1.22-2.24.87-3.71-.78-3.29-7.38-10.77-9.42-15.64-1.2-2.86-2.94-6.83-3.17-9.87-.76-9.87,9.9-12.41,11.03-22.98,1.97-18.39-4.57-38.01-20.49-48.22-11.75,7.74-33.87,4.33-39.72,19.02-2.29,5.75-2.53,14.86-6.33,19.66s-14.75,7.82-19.96,12.04c-12.66,10.27-2.83,23.96-4.59,37.41-1.34,10.27-8.94,10.53-6.67,24.84,1.63,10.29,7.04,13.96,15.09,18.91,10.92,6.72,35.69,20.68,47.94,18.59,15.45-2.63,7.02-15.84,18.79-20.38,2.19-7.47-11.17-4.62-7.6-10.42,1.83-2.97,9.35-1.56,12.39-2.1,2.58-3.89-1.25-7.45,1.25-11.25,1.84-2.79,8.24-3.17,10.59-5.9h0ZM156.02,79.2c-.27-2.5,3.51-3.21,3.86-4.57,1.04-4-2.99-10.7-8.2-8.29l-1.25,1.94,3.55,10.35,2.04.57h0ZM148.03,69.21c-15.56,5.01-8.34,20.54,0,29-1.38-4.71,3.84-12.04,3.91-15.48s-4.19-9.42-3.91-13.52ZM165.03,75.21c-1.77.36-1.92,2-2.05,3.49-.45,4.85,1.57,18.19,2.72,23.35,2.9,13.01,12.88,26.48,27.33,25.67,2.88-1.4,1.29-7.85.87-10.88-.96-7.12-4.11-26.14-10.31-29.68-6.68-3.81-11.39,3.77-15.56,1.59-3.07-1.6-3.15-10.45-3-13.54h0ZM145.03,182.21c-1.61-22.45-7.25-45.16-8.98-67.51-.39-5.09-.87-12.08-.97-17.04-.08-4.01,3.21-10.73-1.03-13.44-5.15,16.68-3.82,37.06-2,54.49,1.16,11.1,3.88,26.44,8.46,36.54.96,2.11,2.62,5.65,4.52,6.97h0ZM161.03,122.21c-2.07-10.35-3.07-21.12-6.29-31.21-.33-1.04-.26-3.02-1.69-2.78l-2.82,14.28,10.79,19.72h.01ZM183.03,229.2c-1.4-10.18-3.85-20.28-4.98-30.51-1.45-13.09,0-26.3-5.75-39.25l-5.25-13.23c1.54,21.23,4.09,42.56,9.27,63.21l6.71,19.78h0ZM348.76,158.49c-3.79-3.2-6.77.7-7.72.29-2.67-1.14-8.94-14.76-9.9.34l18.9,2.08c.12-.09-1-2.47-1.28-2.71h0ZM330.05,162.21l-43.74-3.76-3.26,2.26,46.48,4.51.52-3.01ZM360.04,168.2c-1.24-3.17-5.58-3.44-8.62-3.87-5.66-.79-12.59-.78-18.37-1.12.25,4.86,7.91,2.67,11.49,3,5.13.48,10.4,1.35,15.51,1.98h-.01ZM368.54,169.21c4.27.87,10.91-.63,15.5,0l-18.49-3.01c-1.35.56,2.78,2.97,2.99,3.01ZM136.33,436.91c2.34,1.86,5.83,1.6,8.46.54,3.94-1.6,26.47-20.22,30.78-24.21,8.12-7.52,14.77-14.42,13.36-26.42-.95-8.07-12.43-27-16.16-36.84-18.5-48.89-28.75-102.05-46.98-151.02-2.38-6.41-10.95-31.16-19.26-30.46-10.67,9.56-25.77,10.2-35,21.7-11.57,14.41-5.17,29.21-7.76,45.24-1.54,9.53-11.13,26.94-10.77,33.24.54,9.52,15.09,33.18,19.9,43.17,3.38,7.03,5.81,14.7,9.28,21.72,8.69,17.51,20.72,37.49,36.83,48.64,7.58-11.94,19.83-22.87,31.13-31.39,6.07-4.58,20.01-16.95,14.62.62-4.65,15.15-27.26,44.31-45.71,34.77-5.21,12.28,1.99,26.58,8.18,37.31,1.35,2.34,7.62,12.21,9.09,13.39h.01ZM160.03,239.2c.05-21.38-.25-44.17-4.29-65.2-.21-1.11-.2-3.97-1.69-3.79.23,10.24.17,20.35-1.98,30.38l7.96,38.61h0ZM347.77,197.48c-.87-.85-2.73-.83-3.7-1.76-6.53-6.28,9.7-27.04-6.92-25.41-1.97,1.37.52,17.57.34,20.96,2.8,4.3,6.54,8.49,11.54,9.95.46-.57-.62-3.11-1.26-3.73h0ZM371.31,188.48c1.41-1.39,8.17-2.57,7.65-5.63-1.64-3.62-5.97-3.47-8.46-5.61-2.7-2.32-1.85-4.89-7.04-5.96-2.09-.43-15.66-1.62-16.43-1.06,3.43,4.79-3.99,20.22,0,23.48,2.21,1.8,5.84.7,5.04,6.46,5.54-.69,12.72,1.52,15.8-3.6,1.27-2.11,1.99-6.67,3.42-8.08h.02ZM740.03,311.22c-8.13,1.32-17.19,2.37-23.99,7.5l-73.46,97.54c-2.49,2.54,3.79,16.94,4.96,16.94l92.49-121.98ZM122.04,384.2c1.84.36,3.55,1.12,5.49,1.1,14.48-.18,33.58-26.43,35.49-40.09-9.09,6.89-18.73,13.6-27,21.49-2.24,2.13-15.37,15.51-13.98,17.5ZM638.04,440.2c-1.79-6.77-1.62-18.28-10.47-19.02-36.73.96-73.52,2.12-110.03,4.01-8.74.45-18.29-.11-27.02.98-5.11.64-11.11,5.74-15.45,8.53-.06,1.85,21.79,4.39,24.44,4.54,31.86,1.86,68.84,1.65,101,2,12.56.14,25.06.05,37.54-1.05h0Z"></path>
</svg>