<svg id="Camada_1" data-name="Camada 1" xmlns="http://www.w3.org/2000/svg" viewBox="0 0 800 500">
  <path d="M285,369c-4.94-5.44-9.78-11.21-12.05-18.41l14.96-9.07c-2.12-2.74-2.43-6.6-1.86-9.97,1.19-7.03.93-15.26.99-23.01.25-28.39-.88-85.93,19.56-107.44,5.89-6.19,12.82-8.99,19.72-13.28,5.32-3.31,10.24-11.5,15.67-4.82-1.8-6.1-4.96-11.8-6.48-18.01-1.15-4.72-1-8.9-1.95-13.05-3.55-15.45-9.32-20.54-6.3-38.19.5-2.92,4.05-12.68,3.82-14.1-.14-.84-5.47-1.79-3.88-8.93.98-4.39,13.86-17.05,17.89-20.14,17.21-13.17,38.41-17.01,58.58-7.75,19.55,8.97,27.32,33.05,24.32,53.17-2.65.25-1.62.05-1.97-1.5-2.16-9.49-2.8-15.11-8.58-23.44-2.32-3.34-11.47-13.2-15.17-13.92-2.61-.51-17.8,7.06-22.01,8.6-13.26,4.86-28.61,9.98-42.66,8.41l-2.59,4.83c11.03,2.62,22.99-1.53,33.52-4.98,4.42-1.45,13.7-6.82,17.52-5.61,6.56,2.09,8.86,21.46,8,27.55,12.19.08,12.1,16.07,12.97,25.04,6.44-4.9,3.04-22.15,14.56-23s10.24,25.63,6.63,32.7c-1.86,3.65-6.88,5.88-7.69,7.31-.9,1.61-1.06,7.02-2.06,9.94-5.36,15.6-17.32,31.59-29.75,42.25l-18.7,4.78c4.68.61,8.73,5.46,12.96,6.54,2.14.54,21.69-.21,24.3-.75,8.29-1.71,13.27-9.8,14.6-17.4,1.71-9.8,2.86-25.04,2.13-34.88-.28-3.76-4.48-8.43,1.72-9.31,4.68-.66,10.7,5.41,11.29,9.8,2.39-.02.74-4.11,1.43-4.99,2.08-2.69,13.91,1.51,16.91,3.15,1.59.87,2.56,2.62,4.4,3.6,14.57,7.72,33.11,2.48,46.83,8.17,7.52,3.12,10.21,16.2,15.4,22.32,2.74,3.22,8.38,6.48,11.55,9.73,13.35,13.66,10.04,23.58,17.76,38.24,3.26,6.21,9.95,10.15,12.91,16.09,1.79,3.58,1.88,10.06,3.3,11.7,1.77,2.04,13.68,1.81,11.43,8.4-.57,1.69-3.13.9-2.93,2.59,16.6,4.49,29.72,27.87,27.74,44.24-1.12,9.27-5.27,9.48-10.29,14.73-2.24,2.34-3.66,5.12-6.45,7.55-17.63,15.33-43.67,11.61-64.01,4.5,2.97,3.54.45,7.47,3.01,11.99l4.43-2.06,239.88.23,1.67,2.83h-244c-.08,0,.19,1.16-.36,1.62-4.5,3.79-.92,2.91-1.8,7.65-1.09,5.85-15.88,11.21-21.36,11.72-33.82,3.17-71.71-3.65-106.03-1.03-22.04,1.39-46.9,2.16-68.83-1.07-31.94-4.71-20.86-18.17-4.62-34.87-1.88-.12-3.44,1.54-4.9,2.59-7.81,5.64-14.38,12.1-16.06,21.97-12.95-.82-15.09-17.3-8.47-26.51l8.43-9.06c-3.8,1.1-8.42-1.98-11.53-1.88-1.46.04-16.46,7.52-16.52,8.44.88,2.86,2.61,5.3,4.25,7.75,2.9,4.34,8.05,7.91,8.81,12.69h-65l40.74,16.76c3.82.78,7.97-.22,11.75.25,21.69,2.7,75.05,26.77,97.5,36.5,2.94,1.27,13.05,4.71,13.05,7.99,0,3.02-4.78,3.8-6.56,5.48-3.82,3.61-5.61,8.77-12.46,9.54l-137.57,27.54c-4.66-.14-5.93-5.79-7.16-6.09-4.55-1.13-14.24,3.74-20-1.76-18.87-14.09-41.74-24.65-60.61-38.39-17.63-12.84-24.38-33.23-33.76-52.22,24.01-10.94,25.3-31.03,15.26-53.28-.95-2.12-7.35-11.11-6.18-12.31,15.14,3.02,22.7,5.43,30.52,18.97,22.23,38.51,37.97,82.78,60.65,121.35,3.07,5.89-.44,13.67,8.82,13.67,1.04-1.04-2.98-12.57-3.81-14.68-7.69-19.35-20.85-42.4-30.32-61.68-9.84-20.01-19.82-42.17-30.48-61.52-8.71-15.81-13.64-16.17-30.16-20.84-12.77-3.61-34.66-10.54-46.99-12.05-5.84-.72-6.1,1.34-4.45,6.5,6.64,20.77,26.7,45.22,34.43,66.56.46,1.26,1.07,2.26.78,3.72H23l1.5-3h79.5l-34.91-68.59c-.59-4.59-.5-8.36,5.12-8.18,23.09,9.22,65.66,8.26,79.32,30.73,17.36,37.16,37.21,73.25,54.65,110.35,5.31,11.31,9.32,18.74,11.81,31.19.33,1.65.04,3.47,2.5,3.5.79.01-.23-9.93,4.22-11.8l70.28-15.2-71.74-34.84c-4.62-.57-19.92,6.14-22.79,3.94-1.05-.8-5.31-8.29-4.46-9.11l61-11.01-43.4-17.9-.6-3.09h70ZM424.99,99c-5.67-43.34-52.89-49.4-82.52-23.02-3.98,3.54-20.25,18.7-9.49,21.02.63-7.77,8.79-4.35,14.5-5.01,18.82-2.18,36.86-10.54,54.02-17.94l15,11.94,8.48,13.01ZM392.04,117.97c.24-4.96-1.62-26.99-7.51-27.62-1.1-.12-16.21,6.41-19.31,7.37-10.53,3.25-21.21,5.99-32.21,3.29-2.18,9.74-5.11,18.13-3.9,28.4.81,6.86,4.9,13.29,6.44,19.56,3.93,16.04,4.25,27.97,14.04,42.96,1.7,2.6,11.97,15.58,13.85,17.15,4.69,3.92,12.84,2.7,18.38,1.26,14.1-3.66,32.81-34.47,35.73-48.26.37-1.74.31-6.66.55-6.96.21-.25,3.84-.42,5.92-2.58,4.98-5.19,5.43-22.25,2.17-28.22-4.39-8.05-10.44-.9-12.13,5.26-2.12,7.72.61,11.23-8.57,15.41-2.28-.11-1.38-11.58-1.75-14.21-.88-6.24-4.48-13.27-11.7-12.79ZM420.99,228c2.12-7.24,7.14-13.06,10.03-20.48s8.23-26.75,6.5-33.55c-1.14-4.51-6.87-13.39-12.52-11.96.59,4.23,2.1,9.27,2.08,13.49-.02,7.73-1.83,25.01-3.53,32.57-1.36,6.08-6.81,11.24-12.56,12.95l9.99,6.99ZM548.5,277c4.81-.81,11.44.59,16.5,0-1.6-3.58-1.21-7.89-3.13-11.37-1.67-3.03-6.53-6.16-8.84-9.16-9.22-11.97-8.06-28.18-18-40-4.3-5.11-11.84-9.9-15.46-14.51-5.74-7.31-6.76-18.71-16.52-21.5-13.73-3.92-29.79-.37-43.08-6.92-6.28-3.1-10.36-9.09-18.97-7.54.21,3.34-.45,7,.23,10.28,1.24,6.07,8.27,19,10.8,26.2,1.23,3.5,8.46,23.84,6.98,25.51-8.5-2.16-22.3-16.98-30.42-8.92-.64.63-6.93,9.44-6.57,9.91,13.59,6.97,28.55,12.58,42.05,19.47,19.76,10.09,41.65,27.15,62.92,32.08,12.05,2.79,29.29,2.58,38.98,11.02,4.56,3.98,18.28,28.96,19.77,35.23,8.88,37.47-26.95,36.14-52.74,29.74-28.87-7.16-66.63-46.88-88.95-67.05-2.08-1.88-11.04-9.88-12.78-10.3-3.3-.8-11.27,3.67-15.79,3.85-5.98.24-13.05-2.93-18.94-3.1s-19.68,5.23-23.57-.37c-.99-1.42-.7-3.33-1.5-4.5-1.01-1.48-4.14-3.08-4.98-6.05l-5.33,2.11c1.02,5.65,1.24,12.76-3.6,16.89-5.28,4.52-29.69,4.67-37.06,4.02-8.1-.72-12.54-4.3-13.46-12.54-1.24-11.02-.75-25.67-.96-37.04-.12-6.91-3.66-14.35,5.25-18.67,10.1-4.89,36.05-.67,47.71.22-1.16-2.92,1.68-5.97,1.85-7.69.14-1.42-4.58-6.18-5.67-7.99-2.74-4.55-12.66-25.36-17.66-25.34-11.97,8.81-26.15,13.49-34.34,26.69-8.06,12.99-13.46,49.11-14.17,64.83-.41,9.13,1.4,17.91,1.03,27.03-.19,4.66-2.1,11.44-1.96,15.87.1,3.13,2.28,6.24,1.99,10.09-.24,3.1-4.54,9.3-.08,12.06,2.12,1.31,11.81-4.28,14.74-5.32,11.72-4.16,23.97-7.92,36.56-7.25l4.26,7.96.93,9.05c9.74-8.64-1.25-19.43-4.67-28.31-1.02-2.65-5.88-14.8-.32-14.72,9.25,4.8,9.03,18.24,10.6,27.44,1.01,5.91,3.44,8.73-.11,15.6,18.6,2.01,34.99,10.83,53.51,12.99,15.5,1.81,40.85,3.68,55.99,2.02,8.06-.88,18.85-6.66,27.49-8.51,19.08-4.08,35.1,8.3,53.64,11.36,19.92,3.29,49.14-1.62,50.36-26.4.47-9.58-11.18-20.02-10-30.46,11.59,2.77,11.23,16.34,13.06,25.43.51,2.57,3.16,4.95,1.95,8.56,1.87-.71,2.83-4.75,3.01-6.47.86-7.91-2.77-20.38-6.81-27.24-8.61-14.64-34.36-22.29-50.21-25.3.28-1.36,3.48-2.82,4.5-2.99ZM455.99,224l-1.73-7.76-14.25-35.23c-1.31,11.4-4.59,22.45-9.01,32.99,9.33-.41,17.14,5.98,24.99,10ZM366.78,213.22c-.59-.6-5.51-1.32-6.77-3.22l4.07,4.64c.05,2.92-2.85,5.29-3.1,7.97-.19,2.08,1.25,8.46,1.06,11.85-.12,2.18-1.41,4.26-1.04,6.54,7.42-1.37,14.62-5.03,22.41-4.01l.6,2.51-22.91,4.61.03,10.75c1.15,1.82,11.76.32,14.12-.09,1.05-.18,10.87-5.19,9.73-.28-2.49,3.34-6.6,1.88-9.96,3.05-3.61,1.25-13.86,11.86-16.62,3.46-.46-1.4.33-2.9-.06-4.01-1.92-5.61-6.35-8.62.63-14.49.34-.73-1.46-.24-2.01-1.16-4.13-6.88,2.11-12.22.59-14.39-5.66-3.21-12.72-1.69-19.06-1.96-1.94-.08-3.84-1.01-5.96-1.03-5.25-.03-20.17.08-23.02,4.06-2.48,3.46-1.67,16.51-1.56,21.52.18,9.1.5,24.34,2.1,32.9.77,4.12,3.35,6.1,7.42,6.58,5.9.69,31.99.59,36.47-1.58,8-3.87,3.29-13.67,5.56-17.44,1.06-1.75,9.11-5.45,10.49-4.01l.44,5.06c2.34,3.55,12.71-4.32,16.55-3.05l-.59,3.08c-4.52,1.94-10.27,1.23-12.38,6.42,7.33,4.58,15.13.16,23.53.45,6.77.24,12.87,2.79,19.96,2.04,11.57-1.22,10.55-7.34,22.5,2.49,24.97,20.53,61.87,63.96,93.35,71.65,26.29,6.42,63,6.62,48.4-31.4-1.89-4.93-11.2-21.38-14.33-25.67-9.04-12.44-29.18-11.1-42.66-14.34-19.7-4.74-43.14-22.68-61.9-32.1-17.5-8.79-36.37-15.23-52.85-26.19-7.21-.97-12.63,3.52-20.29,2.33-2.74-.43-16.43-4.23-18.7-5.3-3.8-1.8-3.19-7.16-4.26-8.24ZM569,283.99c-2.64-6.99-7.81-4.8-13.99-4.98l13.99,4.98ZM348.99,323c-1.7-5.78-1.2-16.72-7.99-18.99-.93,1.03,4.85,17.71,7.99,18.99ZM592.99,325c-.17-5.89-2.41-12.09-6.98-15.99l1.81,6.68,5.17,9.32ZM209.22,464.79c-1.01-1.8.66-6.22-1-8.51l-62.42-125.58c-4.93-8.9-13.78-13.91-23.8-14.69,14.76,21.19,16.56,50.49-10.03,62.53,9.15,17.49,15.48,37.88,32.51,49.48,20.17,9.89,40.92,29.03,60.62,38.38,2.98,1.41,6.54,2.66,9.9,2.59-.3-1.83-5.22-3.22-5.77-4.2ZM302.99,378c.53-10.71,13.34-20.17,21.7-25.81,2.98-2.01,18.14-9.75,18.85-11.2,1.09-2.22-1.64-10.36-3.53-11.5-5.24-3.17-37.97,7.11-44.01,12.01,14.69,5.7,26.43-7.78,40.99-8.5,3.99,4.08-11.22,9.95-13.78,10.71-10.39,3.09-16.89.58-24.63,10.37-6.1,7.72-6.71,21.06,4.4,23.91ZM333,336.01c-3.41.84-6.98,1.95-10.25,3.24-1.33.52-4.51,1.23-4.75,2.74,5.15.2,11.48-2.1,14.99-5.98ZM506.77,353.23c-.97-.81-8.18-2.09-9.97-2-11.67.58-25.98,9.55-38.31,10.77-13.72,1.35-44.64-1.07-58.72-3.26-16.72-2.61-33.86-11.4-51.09-13.46-12.09,4.98-26.76,13.74-33.51,25.41-4.99,8.64-5.67,12.9,4.8,15.84,19.86,5.57,43.22,3.35,63.47,3.43,40,.16,79.95.41,119.92.92,3.51-.73,7-1.24,10.33-2.67,1.9-.82,8.99-5.16,9.29-6.71.27-1.39-.09-3.05,0-4.5l-18.01-1c-.48-4.05,4.8-5.56,3.98-9.96-6.21-.27-7.27-6.74.03-6.05.28-.25-1.71-6.33-2.24-6.77ZM521.99,364.99c1.77-4.08-11.18-10.8-11.99-9.99.13,6.96,5.57,9.98,11.99,9.99ZM522.89,373.89c4.24-6.21-9.44-8.29-11.4-5.9l-2.49,5.99,13.89-.1ZM225,466.99l151.98-30.49c-.04-.89-5.81-3.46-7-3.98-33.33-14.62-69.15-25.96-102.72-40.27-22.3.6-44.1,8.07-66.26,10.77l4.41,4.95,19.7-4.43,77.78,37.58.12,2.88-74.04,14.48c-3.56,1.09-3.97,5.33-3.97,8.52ZM383.94,432.07l-102.55-39.96-6.39-.1,99.7,39.79c3.6,1.87,4.12,5.98,9.23,3.12v-2.85ZM375.99,440l-148.41,29c-1.67.24-.33,4.36,1.94,4.02l139.72-27.29c1.19-.12,8.29-4.27,6.76-5.73Z"></path>
</svg>