<svg id="Camada_1" data-name="Camada 1" xmlns="http://www.w3.org/2000/svg" viewBox="0 0 739.96 314.17">
  <path d="M357.98,122.17c-8.82-1.34-18.14-5.08-27.01-1.51-9.48,3.81,2.39,14.25,2.94,22.16s-6.77,16.73-14.43,17.4c-5.82.51-16.4-3.52-18.74-9.3-2.87-7.08,4.36-23.75-.75-26.24-7.56-3.7-21.27,7.55-30,4.51,3.01,6.22,2.4,15.51,4.21,21.28.48,1.53,6.64,7.58,8.2,9.8,10.81,15.45,13.27,31.42-7.73,39.1-7.96,2.91-13.68,1.28-21.7,1.33,1.68,11.55,7.52,19.54,15.02,27.98,5.18,5.83,10.89,5.54,8.55,16.56-3.19,15-21.78,14.63-31.54,5.94,6.62,16.64-11.46,21.01-24.56,17.05-15.13-4.58-22.53-14.64-34.13-22.87-5.79-4.11-12.85-6.11-19.24-10.76-7.33-5.34-13.8-15.87-18.38-19.11-1.39-.98-4.43-.96-6.39-2.12-7.27-4.31-14.69-9.81-20-16.25-5.74,2.75-12.92-.37-17.72.08-4.19.39-16.95,6.58-22.97,8.12-25.66,6.58-54.49,7.06-80.65,3.39-1.98-1.06.09-2.3,1.51-2.52,8.63-1.36,22.38-.18,32-1,19.81-1.69,68.16-8.74,77-29,.82-1.87,1.59-3.9,1.5-5.99-23.89,5.83-49.75-2.15-73.32-6.98l-.66-3.01c25.12,6.8,49.76,6.41,74.76-.74,15.5-4.43,38.98-18.73,53.63-17.15,8.76.94,31.37,10.34,37.15,16.84,2.39,2.68,3.31,6.53,5.45,9.55,6.79,9.56,26.48,22.67,37.52,26.49,2.47.85.9-.96.75-1.75-1.24-6.5-5.77-15.21-1.75-21.23,2.85-.6,11.02,19.26,21.97,19.46,3.58.07,11.5-3.18,13-6.48,3.67-8.08-5.4-19.65-10.99-24.98.48,10.81-9.92,15.48-18.49,9.48,4.39-6.05,8.84-12.2,11.01-19.49,1.73.49,3.06,2.29,3.01-.5-.1-5.83-7.04-11.09-10.44-15.57-4.88-6.41-11.63-17.15-18.25-21.75-8.92-6.21-21.48-10.43-31-16-6.66-3.9-41.38-29.05-42.24-34.79l1.54-2.3c3.32-.96,16.54,6.08,18.93,8.85,1.22,1.41,1.43,3.39,2.43,4.57,2.94,3.45,11.97,9.6,16.52,9.54,11.78-.14,9.38-19.01,11.98-19.02,2.1,1.37,1.34,2.31,1.24,4.19-.34,6.24-2.2,16.79,2.71,21.84,7.56,7.76,23.75-14.09,25.55-12.04-2.87,9.13-8.48,26.59-3.05,35.3.38.61,9.5,9.74,10.08,10.18,1.92,1.45,11.13,3.91,13.3,3.56.75-.12.75-1.63,1.41-2.01,3.14-1.79,6.51-3.43,10.24-3.06-.63-14.38,12.02-41.12,5.23-53.67-10.64-19.66-74.75-50.39-96.69-58.31-21.49-7.76-30.18-8.49-52.28-2.25-23.55,6.65-44.72,17.12-69.22,22.78-16.1,3.72-43.77,9.8-59.65,10.4-1.92.07-3.05.52-4.34-1.41,1.2-1.99,2.87-1.19,4.47-1.51,24.03-4.77,47.7-6.74,71.72-13.28C101.98,16.88,136.54-2.1,162.46.19c26.36,2.33,103.19,41.39,119.49,62.51,12.86,16.66-3.98,41.44-1.98,60.47l-10.99,2.99c8.77,3.76,32.55-13.02,35.37.85,2.05,10.08-9.04,22.4,5.63,28.66,7.93,3.39,14.71,2,19.46-5.54,6.49-10.34-6.67-19.07-5.47-26.41,1.51-9.2,30.7-7.5,36.03-3.06,2.2,1.83-.11,13.83.12,17.89s1.61,13.61,4.79,16.19c4.59,3.73,5.17-.37,8.36-1.78,10.91-4.82,25.01-3.09,26.73,10.69s-4.99,23.75-19.46,21.46c-4.77-.76-8.2-7.09-13.02-1.88-5.48,5.93-5.66,19.94-1.38,26.77,1.37.84,22.61-1.55,26.04-2.12,15.61-2.55,36.15-16.39,50.14-5.56,10.67,8.26,2.84,9.48.68,18.46-1.16,4.82,1.87,12.21,4.96,15.9,8.83,10.54,26.98-.88,23.77-12.77-1.63-6.04-11.53-12.89-1.66-19.15,8.69-5.51,18.78-.15,23.9-9.59-29.11-2.26-58.49-1.03-87.52,2.09-6.49-.58-5.93-11.32-5.03-16.15.54-2.92,3.66-10.29,6.15-11.85,9.52-5.94,17.2,10.36,28.05.55,11.14-10.08,8.23-30.68-9.2-28.74-3.91.43-2.67,3.13-6.14,3.85-23.55,4.87-22.07-21.71-15.36-36.3,11.42-.12,22.38,2.26,33.32-2.69,10.56-4.78-1.84-12.19-2.2-20.35-.89-19.74,35.74-21.64,34.97,1.04-.29,8.58-11.91,13.24-2.99,18.97,5.95,3.82,6.97-2.43,11.48-6.41,6.54-5.77,14.35-9.8,20.95-15.05,32.15-25.57,34.67-35.55,80.06-35.02,21.82.25,43.06.49,64.92,0,7.54-.17,14.84-.49,21.99,2.05,1.1.16.71,1.36.06,2.01-.95.95-9.3,2.97-11.88,4.12-16.75,7.52-30.09,20.86-37.12,37.88-12.72,30.77-.15,53.7-25.55,83.45-18.56,21.74-48.05,17.35-66.86,37.14-4.92,5.18-7.9,13.66-.5,18.28,9.43,5.89,23.83-7.14,31.67-10.11,5.61-2.13,12.52-2.86,18.7-5.3,2.91-1.15,7.09-4.55,9.01-5.08,2.85-.78,7.66,1.56,11.01.59,1.18-.87-14.18-16.99-18-16-.54-.73.85-2.93,1.49-2.96,1.59-.09,19.8,11.55,22.43,13.56,34.45,26.22,52.26,85.17,93.09,94.91,11.7,2.79,19.93-1.16,30.99,2.5-24.81-22-56.57-40.68-73.52-69.97-21.74-37.58-51.69-133.46-11.96-166,9.93-8.13,23.06-11.25,35.77-11.04,7.45,12.79,15.94,25.26,22.88,38.34,9.6,18.09,17.01,41.38,29.85,57.15,1.56,1.92,10.91,10.25,10.96,11.02.17,3.1-4.55-.62-5.01-.98-16.92-13.1-28.28-47.42-38.45-66.55-6.43-12.09-14.73-23.42-20.68-35.82-77.27.37-51.09,103.76-32.31,148.81,16.47,39.5,35.67,54.12,68.01,79.99,7.65,6.12,19.75,13.37,26.23,19.74,1.2,1.18,1.68.76,1.23,3.3-6.78-2.53-13.22-6.19-20.61-6.87-10.09-.92-14.26,1.84-25.6-1.41-36.78-10.52-48.5-47.4-70.27-73.73-7.33-8.86-16.82-17.11-26.02-23.98l3.5,7.98c-4.53,2.74-10.43-.72-14.23.21-1.96.48-7.44,4.38-10.51,5.57-5.71,2.21-11.92,2.61-17.26,4.74-8.92,3.55-22.36,15.85-32.91,9.92-6.5-3.65-7.28-10.85-5.09-17.42-14.18,11.09-45.79,7.42-32.99-15.99-4.52.79-18.17,1.99-18.75,7.63-.76,7.42,11.44,10.26,4.3,23.41-8.6,15.84-28.21,10.53-32.06-7.04-1.76-8.05,2.72-11.17,4.38-18.31-10.74-15.47-27.95-4.52-41.43-.77-11.11,3.09-22.9,4.13-34.43,4.07-1.43,1.25,9.07,8.53,2.38,12.89-7.61,4.97-37.3.86-41.64-8.16-.69-1.43-.55-4.27-.88-4.61-1.92-1.99-15.37.02-18.39-2.11-1.49,1.97,1.29,4.42,1.52,6.57,1.52,14.08-30.91,12.37-37.87,5.78-.15-.88.87-1.6.87-1.87v-15.5l29,1.99c-7.02-13.29,5.11-24.51,18.53-23.02,10.28,1.15,21.41,16.54,11.48,25.01,1.3-.46,2.95,1.01,3.5,1.01h25.5c-3.43-8.36-3.61-26.07,5.63-30.86,6.34-3.29,5.93.45,9.44,2.3,21.34,11.21,30.12-33.07,1.67-28.19-6.61,1.13-8.04,7.78-14.48,4.99-3.4-1.47-7.26-9.54-7.26-12.74v-23.5ZM659.98,52.18c-21.1-.14-42.3,1.19-63.54,1.04-19.61-.14-39.7-4.85-58.12,4.78-13.95,7.29-24.02,18.76-35.83,28.17-6.27,5-14.2,8.65-20.51,14.49-1,.93-7.13,6.49-5.98,7.51,9.85.71,19.38-2.11,29-3.56l6.5,16.55,6.01-6.97c2.26-.97,1.88,3.48,2.55,3.95,9.9-1.86,27.31-7.25,29.71-18.69.78-3.74-.1-6.78-.29-10.27-.1-1.73-1.23-2.55,1.02-3.99,1.95.03,2.08,10.35,3.43,12.55,2.78,4.56,17.65,4.99,22.57,4.43,8.67-1,10.24-6.66,11.49-14.33l3.01-.67c-1.79,10.71-4.41,15.16.98,25.52,2.05,3.94,11.32,13.03,8.82,17.28-28.66,17.07-59.13-4.61-88.8-1.81,2.19,17.68.3,35.45-1.99,53,1.01.99,22.72-2.99,26.39-2.89,7.81.21,19.17,5.89,24.57,11.48l-6.96,6.41c16.5-2.84,28.97-8.77,39.42-22.07,16.21-20.64,13.4-34.49,16.7-58.3,2.76-19.83,12.18-37.68,27.4-50.6l22.47-13.01ZM182.74,69.46c-1.19-1.35-9.23-5.19-11.43-6.12-.92-.39-2.55-2.18-3.33-.67,8.42,8.27,17.48,16.05,27.1,22.9,13.83,9.83,28.45,15.87,42.88,24.61-2.12-9.08-.47-17.26,2-26-9.41,10.12-25.74,15.65-26-4-2.5-.31-3.21,2.41-5.07,3.42-7.01,3.8-18.53-3.34-23.49-8.4-2.68-2.73-1.56-4.46-2.68-5.74ZM469.92,109.24c-16.18-6.12-3.61-12.75-2.17-19.8,4.65-22.85-33.37-20.73-28.29-1.24,1.8,6.93,10.84,11.69,3.02,17.96-9.48,7.6-25.14,4.6-36.45,5.05-2.66,11.33-8.07,32.74,10.38,31.87,4.84-.23,6.29-4.48,9.12-4.94,3.58-.58,11.51,2.35,14.39,4.58,11.96,9.23,1.98,34.52-15.47,32.46-4.47-.53-6.83-4.29-10.23-4.86-9.09-1.53-13.11,17.28-9.11,23.7,30.5-.8,61.55-6.2,91.88-.38,3.21,2.06-3.53,5.37-4.01,7.5l10.49.05,3.5-17.04c-14.37-.69-30.43-2.49-39.97-14.53-5.19-6.54-9.68-16.11-3.45-23.4,2.33-2.73,5.99-2.94,8.07-4.44,3.7-2.67,6.57-7.86,12.35-7.64l-11.72-3.76c-9.48-5.43-1.61-20.17-2.33-21.16ZM513.48,125.17c4.21-.58,10.47,0,15,0,8.65,0,23.66,7.23,33.96,8.04,11.82.93,26.2,1.11,36.53-5.06-4.28-9.04-13.1-16.09-13-26.98-9.34,6.16-24.42,4.92-33.49-.98-3.44,10.59-19.17,19.3-29.68,20.33-2.8.27-4.82-1.41-6.19-1.15-1.55.29-5.79,5.24-4.62,6.81.79.21,1.14-.95,1.49-1ZM503.91,107.2c-10.13,3.26-20.26,3.04-30.77,3.14-12.53,21.86,15.23,24.3,29.52,17.01,9.95-5.07,3.51-11.85,1.25-20.15ZM266.96,128.16c-3.47,1.38-7.62-.58-11.23-1.25-1.31-.24-1.96-1.88-1.74.74,2.57,5.03,9.87,10.33,12.41,14.59,2.36,3.97,1.99,9.45,3.8,13.2,1.22,2.55,6.43,7.18,8.59,10.41,6.18,9.22,10.83,19.69-1.47,26.15-10.37,5.44-17.01.78-23.85-6.83-.94-1.04-4.98-8.52-6.49-7,3.25,7.36.64,18.5,10.59,19.9,18.51,2.6,36.78-8.28,27.59-28.59-2.77-6.13-11.34-13.15-12.92-17.08-2.4-5.95-1.98-17.51-5.28-24.25ZM506.84,181.04c1-.62,3.03-20.38,3.18-23.32.19-3.83.5-27.03-.99-28.12-10.31,1.78-23.41,4.82-32.04,11.09l13.97,1.54c-.87,6.76-2.85,14.36-.51,20.99,1.02,2.9,6.36,6.84,1.95,9.89s-13.34-.54-18.42-.91c8.38,7.72,21.8,9.54,32.86,8.85ZM487.98,144.18c-5.08-.03-10.18-2.53-14.95.55-6.28,4.06-4.06,21.94,1.99,24.89,2.58,1.26,16.97,2.92,16.93.05-7.16-6.27-5.24-17.1-3.98-25.5ZM249.75,198.4c-14.41-5.35-31.13-14.44-40.75-26.75-2.61-3.34-3.97-7.56-6.49-10.51-5.99-7.03-30.76-17.17-39.94-16.87-8.47.28-24.63,9.41-33.34,12.66-16.33,6.08-33.64,10.97-51.25,10.26.92,1.65,5.72,1.92,7.46,2.03,6.16.4,14.86.37,21.03-.05,3.74-.26,9.5-4.34,9.3,1.21-.77,21.43-41.61,32.14-58.58,34.51l-24.2,3.28c19.05.23,38.32-2.29,56.51-7.97,3.99-1.25,11.36-5.37,14.23-5.85,3.16-.54,6.74,1.68,9.77,1.64,2.78-.04,6.08-2.38,8.77-1.66,1.14.31,10.86,9.88,13.39,11.68,4.96,3.53,12.08,5.39,15.04,7.47,2.67,1.88,9.38,11.9,13.83,15.67,7.46,6.32,13.22,7.35,20.4,11.6,13.24,7.84,22.32,23.33,40.81,26.18,5.24.81,17.3-1.51,18.08-7.47,1.57-12.02-27.05-40.37-35.81-48.8-12.32-11.86-22.13-21.58-33.99-34.01-4.59-4.81-13.96-11.22-17.1-15.94-2.64-3.98,1.95-10.34,7.81-7.8,2.76,1.2,8.16,11.23,12.25,14.78,4.35,3.77,11.92,6.38,14.99,9.01,4.39,3.76,13.44,21.06,19.51,27.49,3.73,3.95,11.55,8.22,13.99,11.01,3.28,3.77,8.01,18.21,12.52,24.48,6.55,9.08,22.57,22.6,33.01,11.01,10.18-11.3-3.58-18.25-9.52-25.5-6.6-8.05-9.77-16.63-11.71-26.79ZM468.97,167.17c-2.68-7.18-2.1-13.54-1.49-20.99-7.57,5.89-4.14,14.99,1.49,20.99ZM255.98,169.16c10.03,2.76,16.53-8.43,8.49-14.99l-8.49,14.99ZM225.98,224.17c-.2-7.23-5.09-7.79-9.01-11.48-3.65-3.44-8.29-7.76-11.5-11.5-5.12-5.97-10.65-17.66-15.06-21.94-3.72-3.62-12.42-6.53-17.45-11.55-2.83-2.82-8.91-15.14-12.88-12.42l-.97,4.74c19.11,14.49,31.76,36.06,51.88,49.65l14.98,14.51ZM535.29,201.49c3.31-2.75,13.33-5.35,18.03-8.48,1.43-.95,4.26-2.52,2.62-4.28-2.96-3.18-14.08-7.27-18.48-7.55-8.39-.54-18.15,3.02-26.84,2.14l-1.47,1.53-3.67,19.36-15.3-.83c-11.2,14.8,4.41,22.05,18.01,18.51,14.79-3.85,17.45-12.38,27.1-20.39ZM333.67,205.88c5.18-6.61-3.69-17.76-10.64-19.3-6.71-1.49-17.89,4.14-18.85,11.31-.34,2.57,1.71,9.25,4.49,10.08,1.23.37,17.27,1.47,18.86,1.25,1.72-.23,5.21-2.16,6.14-3.35ZM277,222.14c10.09,3.72,42.03,6.5,28.32-11.82l-27.34-3.15-.99,14.97ZM365.68,213.44l-33.7-1.27c-.07,2.13-.41,3.74,1.01,5.49,4.56,5.61,36.65,9.56,37.96,3.95l-5.27-8.17Z"></path>
</svg>