<?xml version="1.0" encoding="utf-8"?>
<svg xmlns="http://www.w3.org/2000/svg" viewBox="0 0 1242 2208">
  <defs>
    <style>
      .a, .b, .g, .h, .i, .n {
        fill: none;
      }

      .b, .h {
        stroke: #c7b299;
      }

      .b {
        stroke-width: 0;
      }

      .c {
        fill: #8c6239;
      }

      .d {
        clip-path: url(#a);
      }

      .e {
        fill: #ddcfba;
      }

      .f {
        fill: #b4876c;
      }

      .g {
        stroke: #ceb09a;
      }

      .g, .h, .i, .n {
        stroke-miterlimit: 10;
      }

      .g, .i, .n {
        stroke-width: 2px;
      }

      .h {
        stroke-width: 4px;
      }

      .i {
        stroke: #fef7ed;
      }

      .j {
        clip-path: url(#b);
      }

      .k {
        opacity: 0.5;
      }

      .l {
        fill: #ceb09a;
      }

      .m {
        clip-path: url(#c);
      }

      .n {
        stroke: #ddcfba;
      }

      .o {
        clip-path: url(#d);
      }

      .p {
        fill: #c7b299;
      }
    </style>
    <clipPath id="a">
      <rect class="a" height="348.94" transform="translate(-42.21 391.74) rotate(-90)" width="431.6" x="-41.04" y="42.5"/>
    </clipPath>
    <clipPath id="b">
      <rect class="a" height="567.98" transform="translate(-1612.92 2184.93) rotate(-90)" width="614.86" x="-21.42" y="1614.93"/>
    </clipPath>
    <clipPath id="c">
      <rect class="a" height="608.3" transform="translate(503.44 1372.26) rotate(-90)" width="866.48" x="504.61" y="130.26"/>
    </clipPath>
    <clipPath id="d">
      <rect class="b" height="362.59" transform="translate(-897.85 3240.53) rotate(-90)" width="312.15" x="1015.27" y="1887.89"/>
    </clipPath>
  </defs>
  <title>Prancheta 1</title>
  <rect class="c" height="1242" transform="translate(-482.5 1724.5) rotate(-90)" width="2205" x="-481.5" y="482.5"/>
  <g class="d">
    <g>
      <path class="e" d="M322.87,44.46a220.24,220.24,0,0,1-4.23,43.12c-14.46,72.49-64.63,138.73-134.2,177.2C127.31,296.37,62.22,306.11,5.86,291.52h0c-49.79-12.89-89.93-43.77-116.08-89.29C-145,141.59-153.18,56-131.44-21.06-122.8-51.7-107-95.92-69.67-126.14c25.71-20.81,55.83-30.15,79.19-36,90.78-22.59,176.1-9.45,234.08,36.06C293.59-86.8,322.87-21.84,322.87,44.46ZM-67.46,66.7c0,36.28,7.91,71.16,23.15,97.69,16,27.78,39.24,45.8,69.22,53.57h0c37.73,9.76,82.47,2.59,122.76-19.69,50.25-27.78,86.3-74.72,96.45-125.56,10.5-52.61-8.57-108.46-47.44-139-56-43.93-136.7-30.09-168.8-22.1C4.48-82.54-10.85-76-21.85-67.07-37.46-54.44-49-33.26-58.3-.43A249.23,249.23,0,0,0-67.46,66.7Z"/>
      <path class="f" d="M51.93,148.57c32,11.24,69.83,4.48,95.63-17.56S186,72.36,178.65,39.22a72,72,0,0,0-9.13-23C162.21,4.58,151-4.11,139.17-10.95,105-30.63,60.59-35.72,26-16.65-46.41,23.35-17.17,124.3,51.93,148.57Z"/>
    </g>
  </g>
  <path class="g" d="M.3,671.8c56.91-23,119.08-50.93,143.88-107.09,14.63-33.14,13.48-70.72,14.58-106.92s5.68-74.77,28.82-102.63c24.48-29.46,67.09-43.53,82-78.8,5-11.8,6.26-24.86,10.45-37,14-40.6,58.1-63.2,100.4-70.68,28.05-5,58.49-5.72,81.56-22.43,13.3-9.63,22.74-23.73,29.89-38.51A184.09,184.09,0,0,0,508.15,1.17"/>
  <path class="h" d="M864.68,2207.73q6-52.82,11.92-105.62c3.67-32.49,8.47-67.49,31.08-91.11,17.59-18.36,43.18-26.62,68.17-31.31,17-3.19,34.45-5.08,50.81-10.81s32-16,39.78-31.48c11.91-23.78,4-56.24,22.44-75.36,10.41-10.77,26.32-13.82,39.07-21.67,17.54-10.81,28.28-30.57,31.67-50.9,2.57-15.37,1.55-31.87,9-45.59,6.58-12.21,19.11-20.36,32.32-24.61s27.25-5,41.11-5.83"/>
  <g>
    <path class="i" d="M1238,1566.8c-69.65-33.06-116.87-108.65-116-185.75s49.66-151.65,120-183.21"/>
    <path class="i" d="M1240.35,1483.34a235.27,235.27,0,0,1-18.33-17.67c-21.58-24.06-32.51-57.45-28.88-89.57s21.89-62.37,48.86-80.18"/>
  </g>
  <g class="j">
    <g class="k">
      <path class="l" d="M275.09,2105.7c-11.12-2.7-22.72-2.57-34.13-1.78-20.6,1.44-41.38,5.13-59.79,14.46s-34.35,24.86-40.81,44.46-2,43.25,13.46,56.9c6.3,5.55,14,9.26,22,11.94,37.41,12.62,79.13,3.1,114.46-14.52,10.48-5.22,20.83-11.32,28.4-20.26C346.58,2164,310.25,2114.23,275.09,2105.7Z"/>
      <path class="l" d="M179,2053.53c-8.94-18.56-24.37-35-44.23-40.44s-43.93,2.59-52.84,21.16c-8.63,18-1.45,39.95,10.65,55.8a101.31,101.31,0,0,0,19.17,19.14C154.66,2141.79,202.09,2101.39,179,2053.53Z"/>
      <path class="g" d="M113.17,2189.39c.08-18.32-5.92-37.28-19.3-49.8-9.34-8.73-21.57-13.78-33.94-17a145,145,0,0,0-48.38-4.17c-12.16,1-24.66,3.77-34.31,11.25-11.08,8.57-17,22.4-19.21,36.24-5.32,34,11.71,70.45,41.21,88.18,24.82,14.93,61.6,17.15,87,1.84C107.45,2243.14,113.06,2212.68,113.17,2189.39Z"/>
      <path class="l" d="M53.58,2010.61c-.88-25.15-8.2-52.85-29.59-66.12-12-7.45-26.7-9.14-40.85-9.47-10.81-.26-22,.23-31.83,4.63-12.79,5.71-22.15,17.61-27,30.76s-5.54,27.49-4.52,41.46c.91,12.64,3.25,25.35,8.8,36.74a71,71,0,0,0,56.25,38.85C36.21,2092.13,55.11,2054.57,53.58,2010.61Z"/>
      <path class="g" d="M149,1800.16c-13.1-9.83-28.95-16.67-45.33-16.54C83.11,1783.77,64,1794.85,49,1809c-15.47,14.65-27.73,33.48-31.19,54.51s2.93,44.24,19.15,58.06c9.88,8.43,22.65,12.93,35.52,14.66,24.65,3.31,49.7-3,72.69-12.54,18-7.47,36.79-18.71,42.58-37.36C197.61,1854.58,173.22,1818.34,149,1800.16Z"/>
      <path class="l" d="M-2.43,1645.09c-15.1,9.57-24.1,27.82-23,45.66s12.12,34.64,27.8,43.22,35.51,8.86,51.64,1.17c25.79-12.3,36.33-45.07,23.16-70.77C63.62,1637.91,21.42,1630-2.43,1645.09Z"/>
      <path class="l" d="M275.29,1936.78c-5.77-6.52-12.65-12.5-21-14.86-7.15-2-14.78-1.23-22.07.23a126.6,126.6,0,0,0-61.79,31.91c-4,3.79-7.87,8-9.63,13.24-4,11.83,3.86,24.12,11.68,33.85,12.33,15.33,26,30.08,43,39.92,29.54,17,71.72,15.34,85.34-20.86C310.87,1993.44,292.83,1956.6,275.29,1936.78Z"/>
      <path class="g" d="M406.73,2038.2c-13-10.44-30.85-12.73-47.47-11.39-10.77.87-21.84,3.26-30.43,9.82-10.19,7.79-15.61,20.66-16.59,33.45-1.69,22.11,12,46.47,33.84,50.31,9.68,1.7,19.55-.64,29.08-3C409.37,2108.73,446.22,2069.89,406.73,2038.2Z"/>
    </g>
  </g>
  <g class="m">
    <g class="k">
      <path class="e" d="M878.46,65.5c13.17,4.76,27.31,6.16,41.3,6.71,25.26,1,51-.73,74.7-9.63s45.11-25.68,55.59-48.68,8.23-52.37-8.8-71c-6.93-7.59-15.85-13.14-25.18-17.46-43.85-20.35-95.89-14.31-141.24,2.42-13.45,5-26.86,11-37.26,20.87C799.22-14.93,836.81,50.43,878.46,65.5Z"/>
      <path class="e" d="M1016.33,180.45c8.41,23.78,25,45.81,48.45,55.11s53.8,2.69,67.13-18.72c12.89-20.72,7.08-48.42-5.53-69.32a123.66,123.66,0,0,0-20.79-25.85C1057.75,76.28,994.64,119.13,1016.33,180.45Z"/>
      <path class="n" d="M1086.68-14.79c-2.55,22.28,2.23,46.17,16.84,63.18,10.21,11.88,24.42,19.65,39,25.22a177.44,177.44,0,0,0,58.32,11.51c14.94.39,30.52-1.3,43.26-9.12,14.62-9,23.72-25,28.2-41.54,11-40.69-4.86-87.3-38.4-112.82-28.22-21.47-72.69-29.08-105.64-13.82C1100.8-79.44,1089.91-43.12,1086.68-14.79Z"/>
      <path class="n" d="M1172.21,233.33c-2.28,30.73,2.94,65.43,27.2,84.42,13.64,10.67,31.28,14.68,48.45,17,13.12,1.76,26.75,2.64,39.35-1.4,16.33-5.24,29.31-18.48,36.94-33.83s10.4-32.72,11-49.86c.56-15.51-.59-31.29-5.82-45.89-9.83-27.46-34.7-49-63.29-54.77C1204.2,136.43,1176.19,179.64,1172.21,233.33Z"/>
      <path class="e" d="M991.21,454.15c14.62,13.71,33,24.14,53,26.17,25.06,2.55,49.85-8.37,69.92-23.6,20.77-15.78,38.2-37.07,45.21-62.19s2.33-54.23-15.57-73.22c-10.9-11.57-25.84-18.76-41.27-22.57-29.57-7.32-60.9-2.95-90.14,5.58C989.36,311,965,322.19,955.52,344.11,939.3,381.45,964.16,428.8,991.21,454.15Z"/>
      <path class="e" d="M1185.81,513.35c.52,23.56,10.79,48.08,31,60.2,15.32,9.2,34.59,10.22,51.88,5.72s32.87-14,47-24.91c12-9.19,23.53-19.88,29.31-33.83,5.9-14.19,5.18-30.18,3.7-45.48-2.4-24.78-6.87-50.22-20.52-71.05s-38.47-36-63-31.69c-17.16,3-31.68,15.05-41.58,29.4C1203.23,431.3,1185,477.28,1185.81,513.35Z"/>
      <path class="n" d="M1154.86,663.05c19.65-9.64,33-30.65,34.05-52.51s-10.14-43.77-28.09-56.3-42-15.52-62.69-8.3c-33,11.53-50.21,50-37.6,83C1073.51,663,1123.82,678.26,1154.86,663.05Z"/>
      <path class="n" d="M855.71,271.05c6.16,8.71,13.74,16.9,23.62,20.89,8.43,3.41,17.83,3.46,26.89,2.67A155,155,0,0,0,985.67,264c5.38-4.08,10.65-8.7,13.48-14.83,6.42-13.87-1.48-29.88-9.7-42.75-13-20.31-27.6-40.08-47-54.32-33.68-24.69-85.24-28.23-106.63,14C820,197.36,837,244.59,855.71,271.05Z"/>
      <path class="e" d="M1189.43,730.89c-4.17,10.87-7.72,22.38-6.58,34,1.59,16.13,12.3,30.33,25.73,39.41s29.37,13.65,45.24,16.91c13.31,2.74,27.57,4.56,40.13-.6,15.35-6.31,25.11-22.14,28.55-38.37s1.52-33.05-.39-49.53q-5.4-46.36-10.78-92.71c-3-25.69-5.09-44.24-33.58-28.86C1237.31,633,1205.27,689.8,1189.43,730.89Z"/>
      <path class="e" d="M709.26,130.11c14.43,14.44,35.85,19.61,56.25,20.19,13.23.38,27-1.07,38.34-7.91,13.44-8.11,21.76-23.06,24.65-38.49,5-26.68-8.42-58.16-34.49-65.74-11.54-3.36-23.87-1.82-35.79-.17C715.44,43.92,665.41,86.28,709.26,130.11Z"/>
    </g>
  </g>
  <g>
    <g class="o">
      <g>
        <path class="p" d="M1205.08,2194.37q-7.51,15.6-15,31.2c-2.58,5.35,5.42,10.06,8,4.68l15-31.2c2.58-5.35-5.41-10.06-8-4.68Z"/>
        <path class="p" d="M1157.38,2185.42l-12.42,31c-2.21,5.54,6.75,7.94,9,2.46q6.19-15.51,12.41-31c2.22-5.54-6.75-7.95-8.94-2.47Z"/>
        <path class="p" d="M1116.07,2153q-5.73,10.65-11.44,21.3c-2.82,5.26,5.18,10,8,4.68l11.43-21.3c2.83-5.26-5.18-9.95-8-4.68Z"/>
        <path class="p" d="M1169.32,2109l-10,22.63c-2.39,5.4,5.6,10.13,8,4.68l10-22.62c2.39-5.41-5.6-10.14-8-4.69Z"/>
        <path class="p" d="M1211.78,2141.21l-6.15,18.24c-1.91,5.67,7,8.1,8.95,2.47q3.06-9.12,6.14-18.25c1.91-5.67-7-8.1-8.94-2.46Z"/>
        <path class="p" d="M1252.69,2176a174.45,174.45,0,0,1-13.15,28.68c-3,5.19,5,9.87,8,4.68a189.11,189.11,0,0,0,14.09-30.89c2-5.64-7-8.07-9-2.47Z"/>
        <path class="p" d="M1111.18,2103.57l-10,19.9c-2.68,5.32,5.32,10,8,4.68q5-9.95,10-19.9c2.68-5.31-5.31-10-8-4.68Z"/>
        <path class="p" d="M1163.4,2040.11q-4.45,10.55-8.92,21.07c-2.3,5.43,5.68,10.17,8,4.68q4.47-10.53,8.93-21.06c2.3-5.44-5.68-10.17-8-4.69Z"/>
        <path class="p" d="M1226,2060.28l-9.78,26.76c-2.05,5.62,6.91,8,8.94,2.47q4.89-13.38,9.79-26.77c2-5.61-6.91-8-9-2.46Z"/>
        <path class="p" d="M1218.78,1988.85l-16.41,27.27c-3.09,5.13,4.93,9.8,8,4.68l16.41-27.27c3.08-5.12-4.93-9.79-8-4.68Z"/>
        <path class="p" d="M1138.6,1984.56,1126,2011.45c-2.51,5.37,5.48,10.08,8,4.68l12.57-26.89c2.51-5.38-5.48-10.09-8-4.68Z"/>
        <path class="p" d="M1094.76,2047.67l-14.18,26.83c-2.79,5.28,5.22,10,8,4.68l14.17-26.83c2.79-5.27-5.21-10-8-4.68Z"/>
        <path class="p" d="M1065.43,2119.94a89.33,89.33,0,0,0-11,18c-2.42,5.4,5.57,10.13,8,4.69a80,80,0,0,1,9.53-16.16c1.55-2,1.91-4.61,0-6.56-1.58-1.62-5-2-6.56,0Z"/>
        <path class="p" d="M1068.19,2191.36l-7.59,14.22c-2.81,5.27,5.19,10,8,4.68l7.6-14.21c2.81-5.27-5.19-10-8-4.69Z"/>
      </g>
    </g>
    <rect class="b" height="362.59" transform="translate(-897.85 3240.53) rotate(-90)" width="312.15" x="1015.27" y="1887.89"/>
  </g>
  <g>
    <g>
      <path class="i" d="M.3,1566.68c97.74-46,161.51-144.79,194.75-247.57,31-95.77,39.4-201,8.91-297S100.6,841.39,4.89,810.24"/>
      <path class="i" d="M.3,1406.08c68.64-47.36,112.25-129.06,113.39-212.44S73.48,1027.39,6.15,978.17"/>
    </g>
    <g>
      <path class="i" d="M.3,1452c71.51-33.65,118.18-106,142.5-181.15,22.65-70.08,28.82-147.11,6.52-217.3S73.69,921.25,3.66,898.45"/>
      <path class="i" d="M.3,1334.43c50.22-34.65,82.13-94.43,83-155.44S53.84,1057.34,4.58,1021.33"/>
    </g>
  </g>
</svg>