<?xml version="1.0" encoding="utf-8"?>
<svg xmlns="http://www.w3.org/2000/svg" viewBox="0 0 1242 2208">
  <defs>
    <style>
      .a, .b, .g, .h, .i, .n {
        fill: none;
      }

      .b, .h {
        stroke: #c7b299;
      }

      .b {
        stroke-width: 0;
      }

      .c {
        fill: #fff8e2;
      }

      .d {
        clip-path: url(#a);
      }

      .e {
        fill: #ddcfba;
      }

      .f {
        fill: #b4876c;
      }

      .g {
        stroke: #ceb09a;
      }

      .g, .h, .i, .n {
        stroke-miterlimit: 10;
      }

      .g, .i, .n {
        stroke-width: 2px;
      }

      .h {
        stroke-width: 4px;
      }

      .i {
        stroke: #fef7ed;
      }

      .j {
        clip-path: url(#b);
      }

      .k {
        opacity: 0.5;
      }

      .l {
        fill: #ceb09a;
      }

      .m {
        clip-path: url(#c);
      }

      .n {
        stroke: #ddcfba;
      }

      .o {
        clip-path: url(#d);
      }

      .p {
        fill: #c7b299;
      }
    </style>
    <clipPath id="a">
      <rect class="a" height="348.94" transform="translate(-42.21 391.74) rotate(-90)" width="431.6" x="-41.04" y="42.5"/>
    </clipPath>
    <clipPath id="b">
      <rect class="a" height="695.38" transform="translate(-1480.25 2179.68) rotate(-90)" width="752.78" x="-26.68" y="1482.27"/>
    </clipPath>
    <clipPath id="c">
      <rect class="a" height="608.3" transform="translate(503.44 1372.26) rotate(-90)" width="866.48" x="504.61" y="130.26"/>
    </clipPath>
    <clipPath id="d">
      <rect class="b" height="362.59" transform="translate(-897.85 3240.53) rotate(-90)" width="312.15" x="1015.27" y="1887.89"/>
    </clipPath>
  </defs>
  <title>Prancheta 1</title>
  <rect class="c" height="1242" transform="translate(-480.91 1722.91) rotate(-90)" width="2201.83" x="-479.91" y="480.91"/>
  <g class="d">
    <g>
      <path class="e" d="M322.87,44.46a220.24,220.24,0,0,1-4.23,43.12c-14.46,72.49-64.63,138.73-134.2,177.2C127.31,296.37,62.22,306.11,5.86,291.52h0c-49.79-12.89-89.93-43.77-116.08-89.29C-145,141.59-153.18,56-131.44-21.06-122.8-51.7-107-95.92-69.67-126.14c25.71-20.81,55.83-30.15,79.19-36,90.78-22.59,176.1-9.45,234.08,36.06C293.59-86.8,322.87-21.84,322.87,44.46ZM-67.46,66.7c0,36.28,7.91,71.16,23.15,97.69,16,27.78,39.24,45.8,69.22,53.57h0c37.73,9.76,82.47,2.59,122.76-19.69,50.25-27.78,86.3-74.72,96.45-125.56,10.5-52.61-8.57-108.46-47.44-139-56-43.93-136.7-30.09-168.8-22.1C4.48-82.54-10.85-76-21.85-67.07-37.46-54.44-49-33.26-58.3-.43A249.23,249.23,0,0,0-67.46,66.7Z"/>
      <path class="f" d="M51.93,148.57c32,11.24,69.83,4.48,95.63-17.56S186,72.36,178.65,39.22a72,72,0,0,0-9.13-23C162.21,4.58,151-4.11,139.17-10.95,105-30.63,60.59-35.72,26-16.65-46.41,23.35-17.17,124.3,51.93,148.57Z"/>
    </g>
  </g>
  <path class="g" d="M.3,671.8c56.91-23,119.08-50.93,143.88-107.09,14.63-33.14,13.48-70.72,14.58-106.92s5.68-74.77,28.82-102.63c24.48-29.46,67.09-43.53,82-78.8,5-11.8,6.26-24.86,10.45-37,14-40.6,58.1-63.2,100.4-70.68,28.05-5,58.49-5.72,81.56-22.43,13.3-9.63,22.74-23.73,29.89-38.51A184.09,184.09,0,0,0,508.15,1.17"/>
  <path class="h" d="M864.68,2207.73q6-52.82,11.92-105.62c3.67-32.49,8.47-67.49,31.08-91.11,17.59-18.36,43.18-26.62,68.17-31.31,17-3.19,34.45-5.08,50.81-10.81s32-16,39.78-31.48c11.91-23.78,4-56.24,22.44-75.36,10.41-10.77,26.32-13.82,39.07-21.67,17.54-10.81,28.28-30.57,31.67-50.9,2.57-15.37,1.55-31.87,9-45.59,6.58-12.21,19.11-20.36,32.32-24.61s27.25-5,41.11-5.83"/>
  <g>
    <path class="i" d="M1238,1566.8c-69.65-33.06-116.87-108.65-116-185.75s49.66-151.65,120-183.21"/>
    <path class="i" d="M1240.35,1483.34a235.27,235.27,0,0,1-18.33-17.67c-21.58-24.06-32.51-57.45-28.88-89.57s21.89-62.37,48.86-80.18"/>
  </g>
  <g class="j">
    <g class="k">
      <path class="l" d="M336.34,2083.12c-13.61-3.3-27.81-3.15-41.78-2.17-25.22,1.76-50.66,6.27-73.21,17.69s-42,30.44-50,54.44-2.49,53,16.48,69.66c7.71,6.79,17.18,11.34,26.92,14.62,45.81,15.46,96.88,3.79,140.14-17.78,12.83-6.39,25.51-13.85,34.77-24.8C423.86,2154.45,379.39,2093.57,336.34,2083.12Z"/>
      <path class="l" d="M218.74,2019.24c-11-22.72-29.84-42.81-54.16-49.5s-53.77,3.17-64.69,25.9c-10.56,22-1.77,48.91,13,68.32a123.71,123.71,0,0,0,23.47,23.43C188.9,2127.3,247,2077.84,218.74,2019.24Z"/>
      <path class="g" d="M138.1,2185.58c.11-22.42-7.24-45.64-23.62-61-11.44-10.7-26.41-16.88-41.56-20.82a177.24,177.24,0,0,0-59.23-5.1c-14.89,1.23-30.19,4.62-42,13.77-13.56,10.5-20.86,27.42-23.51,44.37-6.52,41.64,14.33,86.25,50.45,108,30.38,18.27,75.41,21,106.51,2.25C131.1,2251.4,138,2214.1,138.1,2185.58Z"/>
      <path class="l" d="M65.14,1966.71c-1.08-30.8-10-64.72-36.23-81-14.72-9.12-32.69-11.19-50-11.6-13.24-.31-26.88.29-39,5.68-15.66,7-27.12,21.55-33,37.65s-6.77,33.66-5.53,50.76c1.12,15.48,4,31,10.77,45C-75.1,2039.45-48,2058.14-19,2060.79,43.88,2066.51,67,2020.52,65.14,1966.71Z"/>
      <path class="g" d="M182,1709c-16-12-35.45-20.4-55.49-20.25-25.19.19-48.64,13.75-66.93,31.07-18.94,17.94-33.94,41-38.18,66.74s3.59,54.17,23.44,71.09c12.1,10.32,27.73,15.83,43.48,18,30.19,4,60.86-3.7,89-15.35,22.09-9.15,45-22.91,52.13-45.75C241.49,1775.67,211.63,1731.3,182,1709Z"/>
      <path class="l" d="M-3.43,1519.2c-18.49,11.71-29.51,34-28.13,55.89s14.84,42.41,34,52.92,43.47,10.85,63.22,1.43c31.57-15.06,44.47-55.18,28.35-86.64C77.44,1510.4,25.77,1500.69-3.43,1519.2Z"/>
      <path class="l" d="M336.59,1876.31c-7.07-8-15.49-15.3-25.75-18.19-8.75-2.47-18.1-1.5-27,.27a155,155,0,0,0-75.65,39.08c-4.9,4.63-9.64,9.81-11.79,16.21-4.86,14.48,4.72,29.53,14.3,41.44,15.1,18.77,31.8,36.83,52.67,48.87,36.17,20.88,87.81,18.79,104.48-25.53C380.15,1945.68,358.07,1900.58,336.59,1876.31Z"/>
      <path class="g" d="M497.51,2000.48c-15.92-12.77-37.77-15.58-58.12-14-13.19,1.07-26.73,4-37.25,12-12.47,9.53-19.12,25.3-20.31,41-2.07,27.07,14.7,56.9,41.43,61.6,11.84,2.08,23.94-.79,35.6-3.73C500.74,2086.83,545.86,2039.28,497.51,2000.48Z"/>
    </g>
  </g>
  <g class="m">
    <g class="k">
      <path class="e" d="M878.46,65.5c13.17,4.76,27.31,6.16,41.3,6.71,25.26,1,51-.73,74.7-9.63s45.11-25.68,55.59-48.68,8.23-52.37-8.8-71c-6.93-7.59-15.85-13.14-25.18-17.46-43.85-20.35-95.89-14.31-141.24,2.42-13.45,5-26.86,11-37.26,20.87C799.22-14.93,836.81,50.43,878.46,65.5Z"/>
      <path class="e" d="M1016.33,180.45c8.41,23.78,25,45.81,48.45,55.11s53.8,2.69,67.13-18.72c12.89-20.72,7.08-48.42-5.53-69.32a123.66,123.66,0,0,0-20.79-25.85C1057.75,76.28,994.64,119.13,1016.33,180.45Z"/>
      <path class="n" d="M1086.68-14.79c-2.55,22.28,2.23,46.17,16.84,63.18,10.21,11.88,24.42,19.65,39,25.22a177.44,177.44,0,0,0,58.32,11.51c14.94.39,30.52-1.3,43.26-9.12,14.62-9,23.72-25,28.2-41.54,11-40.69-4.86-87.3-38.4-112.82-28.22-21.47-72.69-29.08-105.64-13.82C1100.8-79.44,1089.91-43.12,1086.68-14.79Z"/>
      <path class="n" d="M1172.21,233.33c-2.28,30.73,2.94,65.43,27.2,84.42,13.64,10.67,31.28,14.68,48.45,17,13.12,1.76,26.75,2.64,39.35-1.4,16.33-5.24,29.31-18.48,36.94-33.83s10.4-32.72,11-49.86c.56-15.51-.59-31.29-5.82-45.89-9.83-27.46-34.7-49-63.29-54.77C1204.2,136.43,1176.19,179.64,1172.21,233.33Z"/>
      <path class="e" d="M991.21,454.15c14.62,13.71,33,24.14,53,26.17,25.06,2.55,49.85-8.37,69.92-23.6,20.77-15.78,38.2-37.07,45.21-62.19s2.33-54.23-15.57-73.22c-10.9-11.57-25.84-18.76-41.27-22.57-29.57-7.32-60.9-2.95-90.14,5.58C989.36,311,965,322.19,955.52,344.11,939.3,381.45,964.16,428.8,991.21,454.15Z"/>
      <path class="e" d="M1185.81,513.35c.52,23.56,10.79,48.08,31,60.2,15.32,9.2,34.59,10.22,51.88,5.72s32.87-14,47-24.91c12-9.19,23.53-19.88,29.31-33.83,5.9-14.19,5.18-30.18,3.7-45.48-2.4-24.78-6.87-50.22-20.52-71.05s-38.47-36-63-31.69c-17.16,3-31.68,15.05-41.58,29.4C1203.23,431.3,1185,477.28,1185.81,513.35Z"/>
      <path class="n" d="M1154.86,663.05c19.65-9.64,33-30.65,34.05-52.51s-10.14-43.77-28.09-56.3-42-15.52-62.69-8.3c-33,11.53-50.21,50-37.6,83C1073.51,663,1123.82,678.26,1154.86,663.05Z"/>
      <path class="n" d="M855.71,271.05c6.16,8.71,13.74,16.9,23.62,20.89,8.43,3.41,17.83,3.46,26.89,2.67A155,155,0,0,0,985.67,264c5.38-4.08,10.65-8.7,13.48-14.83,6.42-13.87-1.48-29.88-9.7-42.75-13-20.31-27.6-40.08-47-54.32-33.68-24.69-85.24-28.23-106.63,14C820,197.36,837,244.59,855.71,271.05Z"/>
      <path class="e" d="M1189.43,730.89c-4.17,10.87-7.72,22.38-6.58,34,1.59,16.13,12.3,30.33,25.73,39.41s29.37,13.65,45.24,16.91c13.31,2.74,27.57,4.56,40.13-.6,15.35-6.31,25.11-22.14,28.55-38.37s1.52-33.05-.39-49.53q-5.4-46.36-10.78-92.71c-3-25.69-5.09-44.24-33.58-28.86C1237.31,633,1205.27,689.8,1189.43,730.89Z"/>
      <path class="e" d="M709.26,130.11c14.43,14.44,35.85,19.61,56.25,20.19,13.23.38,27-1.07,38.34-7.91,13.44-8.11,21.76-23.06,24.65-38.49,5-26.68-8.42-58.16-34.49-65.74-11.54-3.36-23.87-1.82-35.79-.17C715.44,43.92,665.41,86.28,709.26,130.11Z"/>
    </g>
  </g>
  <g>
    <g class="o">
      <g>
        <path class="p" d="M1205.08,2194.37q-7.51,15.6-15,31.2c-2.58,5.35,5.42,10.06,8,4.68l15-31.2c2.58-5.35-5.41-10.06-8-4.68Z"/>
        <path class="p" d="M1157.38,2185.42l-12.42,31c-2.21,5.54,6.75,7.94,9,2.46q6.19-15.51,12.41-31c2.22-5.54-6.75-7.95-8.94-2.47Z"/>
        <path class="p" d="M1116.07,2153q-5.73,10.65-11.44,21.3c-2.82,5.26,5.18,10,8,4.68l11.43-21.3c2.83-5.26-5.18-9.95-8-4.68Z"/>
        <path class="p" d="M1169.32,2109l-10,22.63c-2.39,5.4,5.6,10.13,8,4.68l10-22.62c2.39-5.41-5.6-10.14-8-4.69Z"/>
        <path class="p" d="M1211.78,2141.21l-6.15,18.24c-1.91,5.67,7,8.1,8.95,2.47q3.06-9.12,6.14-18.25c1.91-5.67-7-8.1-8.94-2.46Z"/>
        <path class="p" d="M1252.69,2176a174.45,174.45,0,0,1-13.15,28.68c-3,5.19,5,9.87,8,4.68a189.11,189.11,0,0,0,14.09-30.89c2-5.64-7-8.07-9-2.47Z"/>
        <path class="p" d="M1111.18,2103.57l-10,19.9c-2.68,5.32,5.32,10,8,4.68q5-9.95,10-19.9c2.68-5.31-5.31-10-8-4.68Z"/>
        <path class="p" d="M1163.4,2040.11q-4.45,10.55-8.92,21.07c-2.3,5.43,5.68,10.17,8,4.68q4.47-10.53,8.93-21.06c2.3-5.44-5.68-10.17-8-4.69Z"/>
        <path class="p" d="M1226,2060.28l-9.78,26.76c-2.05,5.62,6.91,8,8.94,2.47q4.89-13.38,9.79-26.77c2-5.61-6.91-8-9-2.46Z"/>
        <path class="p" d="M1218.78,1988.85l-16.41,27.27c-3.09,5.13,4.93,9.8,8,4.68l16.41-27.27c3.08-5.12-4.93-9.79-8-4.68Z"/>
        <path class="p" d="M1138.6,1984.56,1126,2011.45c-2.51,5.37,5.48,10.08,8,4.68l12.57-26.89c2.51-5.38-5.48-10.09-8-4.68Z"/>
        <path class="p" d="M1094.76,2047.67l-14.18,26.83c-2.79,5.28,5.22,10,8,4.68l14.17-26.83c2.79-5.27-5.21-10-8-4.68Z"/>
        <path class="p" d="M1065.43,2119.94a89.33,89.33,0,0,0-11,18c-2.42,5.4,5.57,10.13,8,4.69a80,80,0,0,1,9.53-16.16c1.55-2,1.91-4.61,0-6.56-1.58-1.62-5-2-6.56,0Z"/>
        <path class="p" d="M1068.19,2191.36l-7.59,14.22c-2.81,5.27,5.19,10,8,4.68l7.6-14.21c2.81-5.27-5.19-10-8-4.69Z"/>
      </g>
    </g>
    <rect class="b" height="362.59" transform="translate(-897.85 3240.53) rotate(-90)" width="312.15" x="1015.27" y="1887.89"/>
  </g>
  <g>
    <g>
      <path class="i" d="M.3,1845.62c133.78-62.94,221.07-198.19,266.56-338.87,42.38-131.08,53.93-275.19,12.2-406.48S137.59,852.88,6.59,810.24"/>
      <path class="i" d="M.3,1625.78C94.25,1561,154,1449.14,155.51,1335s-55-227.55-147.2-294.91"/>
    </g>
    <g>
      <path class="i" d="M.3,1688.57c97.89-46,161.76-145,195-248,31-95.91,39.46-201.35,8.93-297.42S100.75,962.18,4.9,931"/>
      <path class="i" d="M.3,1527.72C69,1480.3,112.72,1398.47,113.87,1315S73.59,1148.46,6.16,1099.17"/>
    </g>
  </g>
</svg>